<svg xmlns="http://www.w3.org/2000/svg" width="465" height="106" fill="none"><path d="M263.41 23.08c.11-.23.21-.64.34-.65 1.58-.08 3.18-.2 4.75-.11.72.05 1.35 1.14 2.16.02.08-.11.96-.02 1.23.19.5.39.97.59 1.68.56.49-.02.53 1.12 1.35.45.43-.35.77-.78 1.05-1.22.13-.21 0-.52.03-.78.04-.56.06-1 .99-.46 1.41.8 3 .42 4.53.24.11-.01.3-.2.28-.28-.22-1.28.84-1.14 1.8-1.15.29 0 .68-.05.85-.2.47-.42.83-.72 1.39-.08.47.54 1.38.29 2.04.79.82.62 2.06.54 2.88-.31.75-.78 1.67-1.18 2.88-.98.27.05.5.26.76.39-.23.19-.46.37-.68.56-.09.08-.15.18-.23.28.45.37.91.75 1.49 1.22.41-.39.79-.82 1.25-1.16.75-.55 1.44-1.06.12-1.69 1.38-.43 2.52-1.43 4.19-1.21.75 1.15 2.44.41 3.3 1.06 1.18.87 1.11.25 1.23-.47.03-.2.33-.37.5-.55.15.21.32.42.44.64.11.23.07.58.26.69 1.13.64.23.99-.24 1.43-.08.07-.01.26-.01.39-.28.09-.67.12-.8.29-.35.47.05 1.29-1.21 1.34-.69.03-1.33.53-2.03.73-.19.05-.62-.17-.74-.36-.14-.2-.05-.51-.06-.77l-3.22-1.23c-.13.06-.28.1-.39.19-.09.07-.21.24-.18.27.55.48 1.16.92 1.68 1.43.17.17.26.56.14.72-.48.65-.94 1.37-2.06 1.38-.15 0-.31-.03-.44-.08-.44-.18-.39-.32-.1-.57.3-.26.48-.62.67-.96.06-.1.06-.33-.02-.37-.19-.11-.58-.26-.65-.2-.46.4-.93.59-1.64.64-.57.04-.83.93-.45 1.26.75.64 1.52 1.26 2.29 1.89.21-.18.31-.29.44-.36 1.23-.66 1.42-.7 1.92.39.25.56.67.89 1.12 1.2 1.06.76 1.17 1.36.14 2.27-.38.33-.12 1.21-.01 1.82.06.34.32.19.67-.04.91-.59.96-.55 1.05.23.03.26.04.53 0 .79-.07.47.21.72.7.85.15.04.32 0 .48 0 .48 0 .98-.05 1.45.02.43.06 1.03.16 1.2.41.21.3.05.77.05 1.35.06.09 0-.06 0-.18-.45 0-.91-.05-1.35.02-.2.03-.35.28-.49.45-.02.02.18.21.31.25.59.15 1.16.14 1.53-.54.28-.09.65-.06.8.11.54.61.94.41 1.37-.07.19-.21.44-.37.92-.77-.6-.39-1.2-.78-1.8-1.18-.62-.41-.2-.97-.32-1.46.8 0 1.59.01 2.39-.01.12 0 .35-.19.33-.24-.06-.19-.2-.51-.33-.52-.79-.05-1.59-.02-2.39-.02-.34-1.09.41-1.87 1.4-2.26.68-.27 1.46-.36 1.96-.9.23.44.4.9.71 1.3.13.17.53.21.81.27 1.08.22 1.8-.22 2.48-.86.71-.66.42-1.14-.23-1.66a.973.973 0 0 1-.34-.67c-.04-.79-.02-1.59.95-3.03.97-.77 1.01-.91.96-1.02-.09-.22-.24-.42-.36-.63-.22.11-.45.21-.65.34-.59.41-1.05.84-.96 1.57.05.36.04.39.49.4 1.28 0 1.48-.12.51-.66-1.27.64-1.58.66-1.88.64-.92-.08-1.5-.82-.92-1.2 1.11-.73.45-1.09-.07-1.68-.22-.25-.04-.73 1.18-1.5.41-.4-.06-.45-.51-.38-.26.04-.57.22-.69.41-.23.35-.02.39.44.4.87.02 1.88-.35 2.54.46.25.31.48.37.65.09.13-.21.23-.46.2-.68-.03-.22-.2-.54-.4-.6-.42-.11-.9-.08-2.23.31-1.54.4-1.86.4-2.19.4-.15-.85.15-1.49 1-2.05.76-.5.67-.56-.46-1.14-.24-.12-.53-.4-.51-.57.05-.35.28-.96.47-.97 1.6-.08 3.21-.04 4.82-.04.12.1.23.19.35.28 2.29 1.81 2.36 1.81 5.01.1.23-.15.52-.37.77-.36 1.21.03 1.08-.63 1.16-1.3.15-1.21 1.06-1.89 2.37-1.9h3.38c.92 0 1.44.71.79 1.3-.58.52-.63 1.13-.98 1.67-.18.27-.41.18-.68-.12-.42-.48-1.1-.68-1.61-.32-.56.4-1.41.7-1.35 1.51.01.13-.03.3.05.37.56.46 1.31.93.79 1.63-.51.68-1.77 0-2.17.37-1.04.98-2.29.71-2.96-.04-.42-.84-1.38-.86-1.96-.04-.13.18-.26.37-.38.56.27.09.55.18.82.28 1.08.38 1.12-1.16 2.22-.82.13.04.42-.27.63-.41-.26-.12-.52-.24-1.33.44-.78 1.11-.99 1.43-1.23 1.74-.52.7-.37 1.15.5 1.44.27.09.62.07.86.19.47.24.4 1.11-.11 1.32-.47.2-1.49-.06-1.38.55.11.57 1.07.29 1.67.33.47.03 1.08.16 1.4-.02.77-.44 1.31-.97 2.15-.01.21.23 1.32-.07 1.37.64.05.6.33 1.32-.47 1.78-.11.06-.31 0-.7 0 .23.12.36 0 .23-.37-.11-.34-.17-.69-.26-1.03-.21.05-.46.06-.63.15-.24.14-.47.32-.64.52-.12.14-.23.47-.17.5.22.12.51.17.78.22.14.03.3 0 .68 0 .15.76 1.01 1.02 1.41.76 1.66-1.09 3.47-.82 5.28-.58.14.02.3.43.29.65 0 .22-.19.62-.33.64-1.39.11-2.78.15-4.26.22-.18.83.76 1.01 1.18 1.42.45.43.78.87.4 1.34-.19.23-.8.31-1.23.33-1.08.05-2.1-.09-3.01.74-.5.46-2.09-.41-2.32.64-.14.6.58 1.33.88 2.01.17.39.38.7.97.61.15 1.02-.27 2.08.33 3.32.9-.74 1.71-1.32 2.36-1.99.22-.22.14-.71.03-1.05-.05-.14-.51-.25-.79-.27-.64-.04-1.28-.01-1.93-.01.09-.68-.43-1.62 1.17-1.63.36 0 .7-.44 1.09-.62.6-.28 1.14-.19 1.62.24.15.14.59.29.63.25 1.43-1.32 2.67-.45 4.02.13.5.22 1.21.07 1.79.19.16.03.22.41.33.81.06.09 0-.06 0-.18-.45 0-.91-.05-1.35.02-.2.03-.35.28-.49.45-.02.02.18.21.31.25.59.15 1.16.14 1.53-.54.33-.18.65-.18 1.42.05.29.08.16-.1-.02-.22-.09-.06-.33-.06-.41 0-.07.06-.07.26 0 .33.15.15.36.27.57.36.04.02.19-.15-.14-.48-.09-1.17.54-1.93 1.86-1.8 1.32.13 1.64-.43 1.71-1.31 0-.1.2-.24.33-.26.09-.02.22.14.34.22l2 1.64c.57.52.95.59 1.08-.25.18-1.18 1.64-1.54 2.34-2.39.23.15.52.26.67.45.28.34.37.25.72.04.97-.58 2.09-1.2 3.19-1.26.89-.04 1.92.64 2.75 1.15.54.33.74.18 1.05-.1.42-.37.98-.65.92-1.29-.02-.2.29-.42.45-.63.16.34.33.68.49 1.01.06.11.12.23.19.33.22.3.4.23.69-.07.58-.6 1.26-.71 1.99-.12.17.14.45.2.68.29.1-.36.29-.73.25-1.08-.02-.2-.43-.37-.64-.57-.08-.08-.12-.18-.18-.28.27-.11.53-.24.81-.32.14-.04.42-.06.47 0 .9 1.08 2.25.75 3.93 1.02.29.08.16-.1-.02-.22-.09-.06-.33-.06-.41 0-.07.06-.07.26 0 .33.15.15.36.27.57.36.04.02.19-.15-.14-.48-.56-.9.24-1.06.58-1.47.44-.54.69-.04 1.03.12.87.43 1.02.52 1.61.04.9-.72 1.59-.74 2.36.04.08.08.32.17.32.16 1.3-1.47 1.7.15 2.38.51 1.04.55.83-.11.96-.54.07-.23.27-.43.41-.65.18.17.43.32.53.52.58 1.18.77 1.32 1.77.73.55-.33 1.01-.53 1.69-.51.96.03 1.96.12 2.86-.06.53-.11.94-.69 1.35-1.09.03-.03-.32-.39-.55-.53-.64-.42-.25-.98-.33-1.48-.11-.77.69-.61 1.2-.84 1.24-.56 2.34-1.51 3.71-.28.59.53.71-.08 1.03-.2.27-.1.54-.23.83-.27.31-.05.64-.01 1.45.45.48.34.54.19.47.09-.14-.2-.31-.51-.51-.53-.9-.12-.41.49-.4.72.01.27.34.52.52.78.13-.2.27-.4-.08-1.06-.36-.94-.81-1.54-.16-1.9.58-.32 1.18-.22 1.61.25.39.42.67.26 1.02-.03.15-.12.49-.22.65-.16.27.11.48.33.68.53.62.65 1.35 1 2.43.87.74-.09 1.56-.19 2.13.47.52.6.67-.12 1-.22.27-.09.54-.18 1.26-.04.29.08.16-.1-.02-.22-.09-.06-.33-.06-.41 0-.07.06-.07.26 0 .33.15.15.36.27.57.36.04.02.19-.15-.14-.48-.23-.54 0-.85.2-1.17.13-.21.22-.44.32-.66.38-.18.75-.37 1.14-.53.26-.11.53-.18.8-.27-.07.77.68.97 1.21.76.97-.38 1.89-.92 1.71-2.05-.05-.34.17-.71.29-1.17.8.62 1.47 1.14 2.13 1.65 1.21-.53 1.29-1.7 2.06-2.46.82-.8 1.79-1.5 2.72-2.26.5.88.94 1.79 2.1 2.37.2-.48.28-1.01.62-1.37.2-.21.92-.29 1.24-.15.73.29.1.61-.19.79-.38.24-.46.46-.03.55.59.12 1.23.16 1.84.14.25 0 .52-.23.73-.4.08-.07.01-.25.01-.38v-1.58c.98-.04 1.35.92 2.5.85 2.15-.13 2.18 0 2.33-1.93.04-.53.22-.94.55-1.41.66-.97.82-2.14.07-2.88-1-1-.36-2.01-.59-2.99-.02-.07.19-.21.33-.27.08-.03.24 0 .33.05 1.15.56 1.05 1.83 2.03 2.5.04.03-.16.41-.34.53-.75.53-.55 1.26-.39 1.83.24.89 1.28.47 2 .53.93.08.82.61.88 1.13.02.14.37.27.6.35.05.02.28-.15.32-.27.14-.35.24-.71.35-1.07l2.33-.72c.88.89 1.04.5 1.25-.38.18-.77.83-.89 1.75-.31.71.45 1.24.74 2.03.16.32-.23.78-.39 1.21-.46.9-.14.85-.67.78-1.18-.07-.57.1-1.01.66-1.37.44-.29.63-.76 1.41-.21.77.54 1.84.78 2.78 1.16.11.22.17.6.33.63.58.11.68-.24.64-.63.77 0 1.49-.06 2.15.52.57.49.85.44 1.57-.04.53-.35 1.11-.72 1.62-.39.57.36 1.38.7 1.42 1.45.02.39.11.81-.02 1.17-.15.4-.53.52-.93.1-.44-.47-1.1-.64-1.61-.26-1.59 1.16-4.02 1.21-5.32 2.74-.46.55-1.17.26-1.76.27-.58 0-.93.2-.98.61-.08.53.02 1.07 1.39 1.24.29.08.16-.1-.02-.22-.09-.06-.33-.06-.41 0-.07.06-.07.26 0 .33.15.15.36.27.57.36.04.02.19-.15-.14-.48.17-1.14.61-1.39 1.14-.83 1.01 1.06 2.97.03 3.69 1.35.23-.16.51-.28.67-.48.27-.35.41-.33.71 0 .54.59 1.21.81 1.98.21.2-.16.45-.27.68-.4.78 1.24 1.42 0 2.13-.08.31-.04.64 0 .96 0 .87 0 1.14.19 1.16.86.01.4-.07.8.02 1.19.22 1-.74 1.46-1.45 1.86-.8.44-1.4-.26-1.96-.71-.08-.07-.31 0-.7 0 .23.12.36 0 .23-.37-.11-.34-.17-.69-.26-1.03-.21.05-.46.06-.63.15-.24.14-.47.32-.64.52-.12.14-.23.47-.17.5.22.12.51.17.78.22.14.03.3 0 .68 0 .16.72.62 1.54-1.01 1.65-1.22.08-.23.6.01.96.08.12-.14.53-.19.53-.44-.03-.88-.11-1.31-.2-.35-.07-.43-.83-1.03-.25-.31.3-.69.56-1.02.85-.65.58-1.36.7-1.98.05-.59-.62-2.47-.16-2.04-1.63 0 0-.47-.2-.65-.14-.41.14-.81.58-1.15.54-1.74-.19-3.11.21-4.17 1.39-.14.16-.55.17-.83.24-.38.09-1.02.02-.6.61.16.22.44.38.66.56-.64.58-1.31 1.13-1.88 1.74-.14.15-.03.51.08.74.17.36.45.39.67.09.52-.71 1.35-.53 2.14-.57 1.01-.05 1.09-.13.4-.82-.48-.48-.17-.68.25-.74.63-.09 1.29-.05 1.3.73 0 .61.08.88 1.01.46 1.09-.49 2.2-.9 2.99-1.72.6-.62.67.21 1.02.27.44.07 1.15.3 1.26.18.68-.75 1.58-.75 2.56-.74 1.76.01 3.52-.04 5.28-.07 1.08-1.19 2.66-.46 3.98-.74 1.59-.33 2.6.67 3.85 1.04 1.49.44 1.54 1.39.49 2.42-.49.48-.99.87-1.23 1.58-.28.8-1.13 1.4-2.52 1.42-1.31.02-2.44.97-3.87.89-.77 1.03-2 .58-3.06.63-.78.04-1.24.27-1.1.92.19.88-.84 1.42-.9 2.06-.13 1.34-1.15.96-2.24 1.02h.22c0-.12.06-.27-.01-.35-.22-.26-.5-.59-.84-.11-.05.06.27.3.64.46.27.99-.11 2.02 1.13 2.82.31.2.16 1 .02 1.49-.11.39-.45.38-.94.1-1.08-.61-1.12-.56-1.94.73-.27.43-1.09.58-.97 1.22-1.46-.11-1.74-1.88-3.46-1.68-.1.01-.37-.39-.39-.61-.03-.38-.09-.79-.6-.76-.16 0-.36.64-.37.99-.02.68 0 1.18-1.14 1.32-.65.08-1.2.73-1.77 1.15-.08.06-.01.25-.01.56v-.18c-.14 0-.33-.05-.42 0-.32.18-.72.41-.13.69.08.04.37-.22.56-.52.46-.18.91-.19 1.37-.18.967.02 1.48.55 1.54 1.59l-.81-.27c-.33-.11-.36-.7-1.03-.24-.98.66-1.17 1.45-1.09 2.4.01.13-.36.29-.55.43-.13-.22-.29-.42-.39-.65-.37-.9-.39-.92-.94-.49-.77.61-1.55 1.09-2.61 1.43-1.47.48-1.81 1.71-.85 2.86.71.85.59 1.32-.23 1.93-.45.34-.97.72-1.14 1.17-.19.49 0 1.05.92.99 0 .13.06.35 0 .38-.4.16-.81.36-1.23.4-1.07.09-2.13-.17-3.05.7-.78.73-.57 1.48-.51 2.21.09 1-1.43 1.4-1.14 2.4-1.13 1.04-2.68 1.8-3.1 3.31-.03.1-.55.11-.85.17-.5.1-.65.35-.81.78-.35.95-.67 1.01-1.59.66-.35-.13-.61-.85-.98-.43-1.29 1.46-2.13-.21-3.19-.22.02-.55-.3-.82-.97-.8-.11-.22-.17-.6-.33-.63-.58-.11-.68.24-.64.81 0 .06.06-.11-.02-.16-.07-.06-.31-.06-.41 0-.32.18-.72.41-.13.69.08.04.37-.22.56-.52.32-.18.65-.18.97-.18-.02.55.3.82.97.8 0 .13.07.33-.01.39-1.29.87-3.15.9-4.34 1.96-.15.13-.62.06-.93.04-.9-.07-1.55.05-1.52 1 .01.4-.39.65-.98.61-.79-.06-1.61-.11-2.13.57-.19.25-.42.17-.69-.13-.42-.48-1.12-.69-1.61-.3-.64.49-1.26.7-2.11.67-.61-.03-1.54-.09-1.79.18-.65.7-1.71.5-2.43 1.06-1.26.97-3.26 1.72-4.33 1.93-1.47.28-2.81 1.14-4.44.79-1.51-.32-2.67.45-3.94.83-.76.23-1.4 1.12-2.12 0-1.35 1.03-3.3 1.2-4.68 2.2-.43.31-.92 1.22-.67 1.35.37.19.81.31 1.24.4.44.09.91.1 1.36.18.1.02.24.2.21.26a.58.58 0 0 1-.33.28c-.43.12-1.12.09-1.25.31-.26.43-.15 1-.29 1.49-.17.59 1.55.75.46 1.48-.94.63-1.46 1.82-3.08 1.58-.31-.05-.64 0-.97 0-1.1-.02-1.15-.07-1.25-1.2-.1-1.13-.14-1.17-1.25-1.19-.64-.01-1.29-.02-1.93 0-.55.02-1.02.81-.6 1.21.55.53.94.78.13 1.47-.65.55-.35 1.04.8 1.26.9.17.91.57.92 1.1 0 .5.15 1.28-.6 1.28-1.21-.01-1.7 1.19-2.93 1-.06 0-.22.42-.33.65h-1.19c.23.12.39 0 .22-.37a.496.496 0 0 0-.29-.26c-.26-.08-.56-.18-.82-.15-.26.03-.49.2-.74.31.17.16.3.39.51.45.27.08.59.02 1.12.02.2.55.52.82 1.19.8 0 .39-.03.79 0 1.18.07.73-.06 1.26-1.2 1.24-.48 0-.85.28-.74.78-.48 0-.97-.03-1.45 0-.95.08-1.54-.11-1.49-1.03.01-.18-.3-.46-.54-.55-.47-.18-3.12 1-3.26 1.54-.12.44-.26.8-.76.81-.75.02-1.5.16-2.24-.35-.69-.48-.82-.36-.92.46-.03.26.03.53-.01.79-.11.74-.81.96-1.7.49-.46-.24-.94-.99-1.17.05-.19.85-.31 1.29-1.25.4-.17-.16-.55-.19-.85-.21-.72-.06-1.33 1.38-2.15.11-.95-.04-1.89-.09-2.84-.11-.8-.02-1.61 0-2.42 0-.97 0-1.93-.03-2.9 0-1.17.04-1.53-.83-2.25-1.29-.75-.49-1.65-.45-1.77.28-.13.78-.67 1.2-1.27 1.55-.76.44-.55 1.17-1.01 1.66-.06.06-.31.09-.32.07-.82-1.26-1.44.09-2.16.12-.98.04-1.82-.04-2.57-.72-.3-.27-1.25-.17-1.85-.05-.53.1-.57.48-.07.77.52.31.4.71-.1.76-.94.09-1.91 0-2.87-.02-.85-1.14-1.45-.36-2.05.19-1.04.95-2.14.91-3.3.19-.13-.08-.3-.28-.33-.26-.25.13-.49.27-.69.45-1.17 1.07-2.41 1.71-3.99.48-.08-.06-.31-.12-.33-.1-1.11 1.4-2.05.24-3.14-.05-.67-.18-1.61-.26-2.16.42-.26.32-.44.36-.69.12-.51-.49-1.05-.97-1.57-1.45-.7.58-1.25 1.07-1.86 1.5-.2.14-.62.22-.87.15-.78-.23-1.87-1.48-1.79.47-.84.56-2.02.64-2.55.08-.89-.93-2.26-.1-3.01-.81-.75-.71-2.07-.51-2.77-1.29-.08-.09-.89.12-1.21.34-.82.58-1.48 1.25-2.68 1.44-.5.08-.89.62-1.63.59-1.61-.05-3.22.03-4.83-.05-.38-.02-.73-.46-1.25-.82-.83.74-1.67 1.52-2.57 2.25-.18.15-.68.26-.84.17-.94-.55-1.65-.71-2.54.19-.88.9-1.32.82-2.29.1-.36-.27-.64-.64-1.04-.82-.37-.16-1.13-.3-1.25-.17-.69.76-1.6.76-2.57.72-.48-.02-.97-.04-1.45 0-1.2.12-2.61-.48-3.54.65-1.08.09-2.39-.09-3.18.35-.89.5-1.1.18-1.81-.09-.74-.29-1.89-.43-2.57.39-.28.34-.39.31-.71.03-.29-.26-.76-.49-1.17-.51-.59-.03-1.3-.26-1.77.29-.43.5-1.04.5-1.69.49-.63-.01-1.34-.09-1.87.11-.55.2-.93.72-1.39 1.09-.8.64-1.72.48-2.61.21-.36-.11-.27-.33.11-.56.21-.12.49-.44.43-.54-.71-1.09-2.38-1.02-3.33-1.83-.23.19-.42.43-.69.55-.85.37-1.03.28-1.64-.62.61.13.84-.3 1.16-.57.9-.74.98-1.1.52-1.64-.5-.59-1.08-.41-2.06-.34-1.66.12-1.59.89-1.58 1.84.01.67 0 1.3.77 1.75.05.03-.12.47-.27.52-.28.09-.64.05-.95.01-.13-.02-.32-.17-.33-.27-.09-1.35-.72-1.4-1.77-.52-1.5-.35-2.36.43-3.27 1.21-.76.66-1.87.63-2.57.17-1.2-.8-2.25-.81-3.33-.05-.74.52-1.54.25-2.29.25-1.08-.01-2.26.35-3.23-.26-.56-.35-1.02-.76-1.11.18-.07.65-.35.9-1.14.92-.83.02-1.49-.1-2.12-.63-.48-.41-1.14-.21-1.63.23-.15.13-.54.26-.65.2-.39-.23-.78-.5-1.03-.83-1.13-1.46-2.83-1.48-4.62-1.32-.13.01-.34.24-.33.26.14.18.31.44.51.47.47.07.96 0 1.45.03.54.03.86.26.83.74 0 .13.06.29-.01.39-.28.42-.55.39-.99.07-.31-.23-.82-.39-1.23-.39-1.52.02-2.35-.55-2.61-1.76-.22-1.03-1.21-.57-1.91-.64-.92-.1-1 .44-1 1v.4c.01.58-.12 1.01-1.02 1-1.45-.03-2.91-.09-4.35.02-.94.08-1.34-.69-1.98-.69-.45 0-.8.74-1.57.67-.78-.08-1.83.16-2.3-.18-.81-.57-1.2-.52-1.78.1-.29.31-.68.57-1.13.94-.15-.4-.24-.74-.41-1.06-.12-.22-.32-.56-.52-.58-1.36-.09-2.81.23-3.91-.75-.77 1.2-1.42 0-2.14-.04-.75-.05-1.56-.21-2.21.41-1.01.97-1.65.12-2.32-.41-.67.51-1.34 1.02-2.01 1.54-.62-.61-1.63-.98-1.44-1.96 0-.05-.42-.19-.65-.22-.1-.01-.21.2-.34.26-.95.42-1.38.45-3.85.36-.97-.03-1.93 0-2.9 0-.95 0-1.2-.8-1.84-1.14l.9-.84c-1.38-.46-2.56-1.45-4.22-1.18-.46.07-.74.38-.18.76.18.12.25.36.36.55-.95.35-1.86.85-2.86 1.02-1.46.25-2.8-.02-3.76-1.14-.57-.66-1.35-.59-1.96.03-.49.5-.71.07-1.04-.13-.85-.52-1.86-.57-2.58-.04-.93.69-1.56.69-2.4-.04-.26-.23-1.03-.09-1.25-.32-.83-.9-1.98-.95-2.96-.55-.76.31-1.61.9-1.42 1.87.02.08-.29.28-.31.26-.22-.12-.53-.25-.57-.43-.33-1.34-1.22-2.04-2.95-1.87-.16.02-.39.05-.47-.02-.96-.89-2.33-1.25-3.59-1.51-1.36-.28-2.88-.1-4.33-.05-1.09.04-1.39-.38-1.31-1.19 0-.08-.54-.3-.61-.25-.5.34-.97.7-1.37 1.11-.3.3-.46.36-.7.07-.4-.49-.96-.58-1.65-.57-2.09.04-4.19-.01-6.29.03-.62.01-.8-.36-1.17-.58-.75-.45-.84.68-1.35.44-.52-.25-.85-.82-1.6-.66-.28.06-.5.28-.76.41-.25.13-.5.31-.78.36-1.03.19-1.38-1.08-2.51-.83-.08.02-.35-.6-.55-.92-.14-.22-.32-.42-.48-.63-.16.21-.37.41-.47.63-.44.97-.44.98-1.23.35-.35-.28-.66-.59-1.05-.82-.1-.06-.44.16-.66.26-1.5.64-1.71.54-1.9-.92-.02-.13 0-.27 0-.4-.03-.45-.31-.73-.88-.69-.61.04-1.24.08-1.81.25-.41.12-.56.59-1.18.56a34.64 34.64 0 0 0-3.38 0c-1.13.04-2.2.06-3.03-.78-.11-.11-.85.13-1.23.31-.36.17-.6.59-1.04.09-.19-.21-.52-.35-.66-.57-.28-.43-.34-1-.73-1.32-.39-.32-1.17-.31-1.6-.61-.97-.69-2.7.22-3.32-1.1-.72.95-1.87.77-2.98.81-.72.02-1.15-.24-1.66-.59-.28-.19-1.08-.27-1.24-.11-.96.91-1.81.96-2.72 0-1.22.23-1.74-1.16-2.93-.88-1.15.27-1.55-.84-2.51-.81-.99.03-1.36-1.12-2.5-.81-1.22.33-1.71-1.15-2.94-.87-.48-.79-1.74-.52-2.33-1.13-.49-.5-1.14-.34-1.75-.39-1.21-.1-2.62.43-3.5-.73l-1.03.72c-.49-.78-1.67-.6-2.33-1.1-1.18-.91-2.29-1.87-3.47-2.83h-8.04c-.47-.45-1.15-1.02-1.7-1.66-.65-.77-1.54-.83-2.53-.76-.82.06-1.57 0-2.1-.63-.84-.99-2.29-1.21-3.47-1.74-1.19-.54-1.28-.46-2.02-1.82-.35-.65-.91-.66-1.52-.57-.98.14-1.4-.46-1.99-.87-.66-.46.07-.58.23-.85.13-.22.23-.45.63-1.04.09-.24-.12-.13-.27.02-.07.07-.07.27 0 .33s.32.06.41 0c.18-.12.33-.3.44-.47.02-.03-.19-.16-.58.11-.55.27-1.03.22-1.07.08-.14-.49-.07-1.02-.21-1.51-.07-.27-.14-.8-.85-.31-.55.38-1.37.5-1.94.87-.71.47-1.07.44-1.04-.32.02-.66-.63-.86-1.01-1.24-.73-.72-1.18.41-1.3.3-.87-.73-2.26-.61-3.08-1.47-.56-.58-.16-2.03-1.93-1.65-.47-.76-1.1-1.48-1.36-2.29-.2-.62-.44-.86-1.19-.88-.52-.01-.81-.26-.81-.75-.01-.62.16-1.15.98-2.43.28.09.56.18.82.28.33.13.45.71 1.04.2.67-.58.71-.61.08-1.71-.19-.33-.15-.93-.4-1.02-.56-.18-1.26-.21-1.86-.12-1.93.29-2.2.26-2.57-.66-.08-.2.03-.54.2-.7.17-.16.59-.29.81-.23.42.12.77.38 1.15.58.62.33 1.17.26 1.76-.28-.7-.53-1.33-1.15-2.12-1.58-.89-.49-.66-1.41-1.35-1.95-.53-.41-.97-1.12-1.74-.2-.04.04-.46-.08-.65-.18-.39-.22-.73-.49-1.08-.72.71-.74 1.91-.4 2.49-1.22.43-.6.6-.65-.49-.83-.57-.09-.89-.25-.94-.67-.08-.6.18-.95 1.04-.97 1.04-.03.93-.45.28-.87-.39-.24-.47-.44-.04-.56a4.5 4.5 0 0 1 1.37-.14c1.15.03 1.59-.73 2.15-1.32.14-.15.08-.63-.08-.72-.35-.2-1.08-.44-1.22-.32-.73.61-1.51.91-2.54.76.16-.5-.43-.65-.68-.96-.54-.69-.36-1.13.54-1.43 1.05-.34.98-.42.34-1.07-.78-.8-1.75-.47-2.65-.52-1.31-.07-1.44-.12-1.43-1.05.01-.88-.27-1.8.83-2.52.33-.21-.01-1.02.18-1.5.1-.24.68-.46 1.07-.49.52-.05.84.24.82.72-.02.4-.16.86.04 1.17.16.25.89.53 1.11.43.65-.31 1.34-.73 1.7-1.25.35-.51-.3-1.3.45-1.83 1.8.4 3.06-1.34 4.86-.85.18.05.39.48.37.49-.73.44-.88 1.04-.8 1.73.11.98-.7.93-1.54.96-1.23.05-1.25.09-1.35 1.08-.05.5.13 1.26-.65 1.25-1.62-.01-1.32.86-1.28 1.59.06.88.86 1.42 1.75 1.6 1.01.2 2.25-.24 2.24 1.29 0 .53 1.08.34 1.68.33.55 0 .88.16 1.08.55.2.38-.22.85-.92 1.06-1.13.33-1.14.35-.5.81.45.33.74.87 1.53.79.81-.08 1.44.13 2.14.57.81.51 2.81.13 2.54-.14-.47-.48-1.13-.85-1.74-1.23-.34-.21-.97-.28-1.06-.52-.11-.29.13-.91.39-.98.57-.17 1.25-.08 1.89-.09 1.36-.03 1.36-.02 1.54 1.35.15 1.09.22 1.11 1.91 1.04.71-.03 1.37-.68.96-.98-.94-.69-.36-2.49-2.47-2.28-.74-.53-.34-1.23-.34-1.85 0-.16.69-.38 1.1-.46 1.22-.26.47-.56.13-.98-.23-.28-.4-.8-.23-1.03.17-.24.97-.48 1.18-.35.77.47 1.5.99 2.52.74.7-.17 1.35-.51 2.02-.78 0 .4-.05.8.03 1.19.02.11.56.28.63.22.45-.35.81-.81 1.39-.12.47.55 1.19.2 1.78.31.29.05.77.13.81.26.32 1.24 1.01 2.1 2.71 2.24.17.01.21.68.41 1.01.82 1.36 3.23 3.81 4.42 4.43.22.11.8.1.91-.03 1.08-1.26 2.66-.56 4-.75.75-.1 1.74.32 2.19-.38.27-.41.04-1.04.12-1.55.02-.13.39-.24.62-.31.06-.02.26.16.31.27.05.12 0 .26.01.39.01.37.18.93.66.57 1.16-.85 2.18-.75 3.35-.1.35.2.85.27 1.29.29.97.04 1.96.13 2.9-.01 1.51-.23 1.39.69 1.67 1.37.04.09.22.14.33.21.23-.19.44-.39.69-.56.61-.4 1.09-1.49 2.08-.32 0 0 .44-.21.65-.35.85-.54 1.94-.61 2.57-.06.71.63 1.76.38 2.44 1.05.66.65 1.83.09 2.73.29.53.12.98.59 1.5.63.33.03.7-.56 1.1-.61.38-.05.92.16 1.21.4.49.4.76.23.95-.15.17-.33.21-.71.34-1.16.8.61 1.47 1.13 2.13 1.63.69-.4.38-.97.46-1.47.08-.45-.17-.76-.66-.88-.3-.07-.64 0-.96-.02-2.14-.08-2.17-.08-2.23-1.96-.02-.56-.16-.97-.66-1.38-.65-.54.16-.6.49-.62 1.43-.09 1.04-.47.37-1.08-.22-.2-.25-.84-.04-1.02.51-.45.86-1.17 1.84-1.1.82.05 1.51-.03 2.15-.59.36-.32 1.08-.35 1.63-.5 0-1.55.03-3-.01-4.46-.01-.49.32-.87.75-.78.91.2 1.72-1.55 2.62-.07.11-.07.24-.13.34-.21.24-.18.43-.43.7-.54 1.24-.51 1.71 1.41 2.93.7.79-.46 1.36-1.16 2.36-.32.78.65 1.85.64 2.58.2.7-.42 1.31-.61 2.14-.61 1.14 0 2.26-.12 2.21 1.3-.01.35.42.37.65.06.52-.71 1.37-.51 2.14-.55.74-.04 1.08-.42.92-1.04-.05-.18-.35-.32-.54-.48-1.29 1.43-1.59-.14-2.29-.51.46-.54 1.16-.36 1.76-.34.99.02 1.79-.09 2.56-.75.56-.48 1.41.15 1.46.94.05.72-.31 1.18-.84 1.73-.57.58-.09 1.21.94 1.24.82.03 1.5.08 2.13.63.48.42 1.14.23 1.63-.21.43-.39.89-.77 1.37-1.12.38-.27 1.5.02 1.47.46-.07 1.02 1.1 1.19 1.41 1.94.48-.39.86-.65 1.16-.96.54-.56 1.2-.86 2.06-.7.42.08.82.26 1.23.4-.23.19-.55.34-.66.57-.16.33-.28.73-.2 1.07.11.43.89.44 1.63.14.32-.13.41-.9 1-.31.17.17.11.49.18.73.03.12.1.24.19.33.09.09.25.22.33.2.14-.03.29-.16.34-.27.18-.45-.05-1.13.74-1.25.6-.09 1.27-.03 1.88.08.46.08.44.33.09.55-.25.15-.63.37-.63.56-.02.35.07.85.36 1.03.26.16.99.13 1.24-.07.52-.41.17-2.25 1.74-.59.35-.26.67-.71 1.05-.75.94-.1 1.96-.15 2.86.05.72.16.16.59-.16.79-.39.24-.41.36-.06.58.6.39.97 1.08 1.95.94.9-.13 1.87.27 2.69-.45.51-.45.85-1.17 1.83-1.15 0 .26.04.52 0 .78-.08.48.24.76.73.79.6.04 1.59.13 1.78-.12.94-1.29 3.3.03 4.01-1.59.2-.45.82-.8 1.53-.65.81.16.64.74.74 1.22.02.09.54.23.62.17.45-.34 1.09-.71 1.19-1.13.12-.55.39-.91.82-1.3.77-.7 1.12-.72 2.31-.03.23.13.54.19 1.25.51.29.08.16-.1-.02-.22-.09-.06-.33-.06-.41 0-.07.06-.07.26 0 .33.15.15.36.27.57.36.04.02.19-.15-.14-.48-.55-.73-.19-.97.32-1.02 1.81-.18 2.08 0 2.14 1.25.01.26-.05.54.01.79.08.36.2.99.39 1.01.74.08 1.72.19 2.22-.12.98-.61 1.71-1.5 2.54-2.28.47.38.68.58.93.75.08.06.31.09.32.07 1.01-1.47 3.17.02 4.27-1.12.47-.49.72-.13 1.03.11.12.09.23.19.34.28.68-.69 1.36-.81 2.05-.01.73-1.01 1.93-.68 3.01-.75.75-.05 1.74.32 2.18-.39.26-.42.05-1.03.09-1.56 0-.1.22-.29.29-.28.23.05.62.16.63.27.06.66-.01 1.33.04 1.98.04.49-.3 1.07.48 1.56.63-.52 1.17-1.27 1.94-1.51.84-.27 1.9-.07 2.87-.07.64 0 1.3.05 1.93-.03.2-.02.37-.37.51-.58.2-.32.39-.95.54-.94 2.01.13 3.43-.91 5-1.63.12-.06.32-.03.48 0 .5.1.88.29.77.97 0 .06.06-.11-.02-.16-.07-.06-.31-.06-.41 0-.32.18-.72.41-.13.69.08.04.37-.22.56-.52.48-.18.97-.12 1.43-.19.93-.15 1.44.33 1.97.81 1.13-.93 2.23-1.88 3.4-2.77.3-.23.79-.36 1.21-.4.6-.06 1.35-.16 1.65.41.17.33.03.77.03 1.35.15-.19 0-.32-.45-.18-.13.04-.27.14-.32.24-.1.21-.21.46-.18.67.03.21.25.41.38.61.19-.14.47-.25.54-.42.09-.22.02-.49.02-.92 1.11-.25 1.41-1.18 2.21-1.57.14-.07.64.11.64.17 0 .55.19.97.7 1.37.72.57.75.58 1.31-.24.3-.44.75-.8 1.08-1.22.27-.35.35-.22.71-.03 1.17.61 2.44 1.07 3.37 1.97.19.18.86.1 1.26 0 .17-.04.36-.45.31-.65-.26-1.15.45-1.53 1.67-1.8.51-.11.82-.74 1.39-.07.18.21.47.37.67.57.82.81 1.58.68 2.36-.06.07-.06.64.11.63.14-.12 1.09.59 1.36 1.74 1.23 1.2-.13 2.6.43 3.55-.67.01-.01.49.17.65.33.51.5.79.14.89-.2.11-.37 0-.79.04-1.19.05-.43.32-.69.92-.67.78.03 1.61-.15 2.15.54.33.43.69.84 1.1 1.34 1.02-1.3 2.67-1.66 2.71-3.11.01-.41 2.03-.55 2.54-.14.54.43 1.29.76 1.25 1.57-.02.4.37.63.97.62.6-.01.91-.24.92-.67.02-.62.26-.97 1.09-.95.8.03 1.62.07 2.41 0 1.07-.1 2.33.46 3.19-.34.8-.74 1.93-.11 2.61-.57.66-.44 1.26-.62 2.09-.71 1.14-.12 1.97.7 2.88.58.83-.11 1.09-1.27 2.65-1.11.29.08.16-.1-.02-.22-.09-.06-.33-.06-.41 0-.07.06-.07.26 0 .33.15.15.36.27.57.36.04.02.19-.15-.14-.48-.44-.62-.5-1.02-.41-1.41.03-.12.55-.3.61-.26.66.52 1.43.95 1.41 1.88 0 .4 1.4.53 1.55.13.34-.91.67-1.66 2.11-1.39.77.14 1.15-.39 1.5-.78.65-.72 1.45-.91 2.47-.82.97.09 1.32-1.06 2.47-.82.75.16 1.58.03 2.38.03 0 .13-.07.31.01.39.43.39.84.97 1.37 1.06.36.06.91-.55 1.32-.91.06-.05-.17-.5-.29-.51-.8-.05-1.6-.02-2.4-.02l.08-.05Zm10.57 71.37c-.15-.15-.28-.33-.47-.45-.09-.06-.33-.06-.41 0-.07.06-.07.26 0 .33.15.15.36.27.57.36.04.02.19-.15-.58-.71v-.8c.27-.09.73-.14.77-.27.13-.48-.3-.56-.77-.53 0-.26.04-.52-.01-.77-.05-.23-.17-.63-.29-.64-1.05-.08-2.11-.11-3.16-.09-.14 0-.42.42-.38.6.08.32.33.84.57.86 1.08.09 2.18.04 3.27.04v.8c-.27.09-.73.14-.77.27-.13.48.3.56 1.66.99v.01ZM88.12 64.51h.96c.17.81.93 1.21 1.7 1.57.2.1.72.04.82-.09.23-.28.36-.65.36-.99 0-.16-.36-.45-.58-.47-.76-.06-1.53-.02-2.29-.02-.11-.22-.17-.6-.33-.63-.58-.11-.68.24-.64.99 0-.12.06-.28-.02-.34-.07-.06-.31-.06-.41 0-.32.18-.72.41-.13.69.08.04.37-.22.56-.7v-.01Zm73.52-14.67c-.15-.15-.28-.33-.47-.45-.09-.06-.33-.06-.41 0-.07.06-.07.26 0 .33.15.15.36.27.57.36.04.02.19-.15-.58-.71.02-.55-.3-.82-5.68-3.98-.47 0-.96-.05-1.42.02-.22.03-.38.29-.57.44.26.11.51.31.78.32 1.44.1 1 .52.33 1.06-.07.05.14.5.25.51.6.05 1.25-.06 1.47.62.11.35.21.86.49.97.61.23 1.14-.08 1.63-.47.27-.22.84-.28 1.26-.26.48.03.65-.03.47-.41-.05-.11-.2-.25-.32-.27-.45-.07-.91-.15-1.36-.13-1.13.05-1.51-.74-2.15-1.24 2.08-1.6-.06-1.04 3.83 2.03-.02.55.3.82 1.86 1.26h.02Zm-27.12-4.78c-.15-.15-.28-.33-.47-.45-.09-.06-.33-.06-.41 0-.07.06-.07.26 0 .33.15.15.36.27.57.36.04.02.19-.15-1.01-.71.14 0 .34.05.42-.01.07-.06.07-.26 0-.34-.22-.26-.5-.59-.84-.11-.05.06.27.3 1.74.92v.01Zm162.7-3.19c-.15-.15-.28-.33-.47-.45-.09-.06-.33-.06-.41 0-.07.06-.07.26 0 .33.15.15.36.27.57.36.04.02.19-.15-1.01-.71.14 0 .34.05.42-.01.07-.06.07-.26 0-.34-.22-.26-.5-.59-.84-.11-.05.06.27.3 1.74.92v.01Zm-10.01-10.76c-.19.12-.4.23-.55.38-.07.07-.07.27 0 .33s.32.06.41 0c.18-.12.33-.3.44-.47.02-.03-.19-.16-.86.83 0-.12.06-.28-.02-.34-.07-.06-.31-.06-.41 0-.32.18-.72.41-.13.69.08.04.37-.22 1.12-1.43v.01ZM83.2 35.49c-.15-.15-.28-.33-.47-.45-.09-.06-.33-.06-.41 0-.07.06-.07.26 0 .33.15.15.36.27.57.36.04.02.19-.15-1.03-.71.45.12.61 0 .44-.37a.496.496 0 0 0-.29-.26c-.26-.08-.56-.18-.82-.15-.26.03-.49.2-.74.31.17.16.3.39.51.45.27.08.59.02 2.23.48l.01.01Zm58.34 6.71c-.15 0-.33-.04-.44 0-.24.11-.61.25-.65.42-.14.74.6.34.87.33.32 0 .64-.28.95-.43-.24-.11-.49-.22-1.85.82 0-.12.06-.28-.02-.34-.07-.06-.31-.06-.41 0-.32.18-.72.41-.13.69.08.04.37-.22 1.68-1.5v.01Zm253.5 6.84c-.15-.15-.28-.33-.47-.45-.09-.06-.33-.06-.41 0-.07.06-.07.26 0 .33.15.15.36.27.57.36.04.02.19-.15-1.03-.71.45.12.61 0 .44-.37a.496.496 0 0 0-.29-.26c-.26-.08-.56-.18-.82-.15-.26.03-.49.2-.74.31.17.16.3.39.51.45.27.08.59.02 2.23.48l.01.01Zm2.02-.89c.15-.37 0-.5-.45-.36-.13.04-.27.14-.32.24-.1.21-.21.46-.18.67.03.21.25.41.38.61.19-.14.47-.25.54-.42.09-.22.02-.49.59-1.84-.19.12-.4.23-.55.38-.07.07-.07.27 0 .33s.32.06.41 0c.18-.12.33-.3.44-.47.02-.03-.19-.16-.86.85v.01ZM82.32 82.83c-.02.55.3.82 2.62 1.59h2.33c.55 0 .8-.25.86-.68.08-.59-.26-.9-1.04-.91-.31 0-.63-.04-.93 0-1 .14-1.65 1.16-2.87.79 0 .13-.04.27.01.38.05.11.19.25.31.27.59.09 1.19.13-.32-.65.02-.55-.3-.82-.97-.8-.21-.27-.35-.66-.64-.76-.36-.13-.86-.03-1.29-.03 0-.37.09-.76-.03-1.11-.11-.3-.44-.65-.85-.15-.52.63-1.31.44-2.46.46.14 0 .34.05.42-.01.07-.06.07-.26 0-.34-.22-.26-.5-.59-.84-.11-.05.06.27.3.85.46-.11.45.23.73.66.78.74.07 1.49.02 2.24.02.21.27.35.66.64.76.36.13.86.03 1.29.03l.01.01ZM90.07 84c.15-.37 0-.5-.45-.36-.13.04-.27.14-.32.24-.1.21-.21.46-.18.67.03.21.25.41.38.61.19-.14.47-.25.54-.42.09-.22.02-.49.02-1.11.32 0 .65 0 3.36 2.35.67-.48.69-.52 1.68-.16.31.11.39.14.72-.12.3-.24.84-.51 1.18-.44.55.11.99.59 1.55.73.71.18 1.6-.21 2.19.44.4.45.82.29.91-.11.07-.32-.15-.95-.38-1-1.02-.22-2.26.12-2.94-.88-.96 0-1.92-.03-2.88-.02-1.11.01-2.23.15-3-.78-.1-.12-.61-.02-.93-.02-.16 0-.38-.05-.46.01-.08.06-.09.3 0 .37.78.67 1.58 1.31-.01-.39-.11-.22-.17-.6-.33-.63-.58-.11-.68.24-.64 1l-.01.02ZM28.01 42.66c-.15-.15-.28-.33-.47-.45-.09-.06-.33-.06-.41 0-.07.06-.07.26 0 .33.15.15.36.27.57.36.04.02.19-.15-1.04-.71.15 0 .36.05.44-.01.08-.06.08-.28 0-.35-.4-.37-.82-.72-1.25-1.06-.07-.05-.28-.08-.3-.06-.14.2-.35.41-.36.61 0 .8.16.88 2.81 1.33l.01.01Zm398.66-23.5c-.19.14-.5.26-.53.42-.08.36-.03.74-.03 1.11.45 0 .91.05 1.35-.02.19-.03.5-.41.47-.43-.39-.38-.83-.72-1.83.81.06-.08.01-.34 0-.34-.45-.02-.91-.06-1.35 0-.2.03-.35.28-.49.45-.02.02.18.21.31.25.59.15 1.16.14 2.09-2.25h.01ZM25.53 46.18c-.91-.01-1.43.18-1.3.84.05.25-.49.77.44.77 1.13 0 1.61-.23 1.45-.92-.06-.28-.43-.52-1.91.91-1.06.19-1.7.72-1.27 2.54l-1.15-.95c-.43.09-1.25.21-1.24.26.13 1.09-1.68 1.6-1.18 2.76.14.33.29.69.56.95.24.23 1.28-.16 1.33-.65.1-.93 1.03-1.25 1.63-1.8.3-.28.43-.39-.61-1.52 1.76.2 2.17-.15 3.26-3.19h-.01Zm82.94-1.16c.06-.79-.62-.37-.93-.41-.79-.1-1.04.31-1.01.89.02.43.31.65.83.69.86.05 1.17-.29 1.67-2.33-.19.12-.4.23-.55.38-.07.07-.07.28 0 .33.07.06.32.06.41 0 .18-.12.33-.3.44-.47.02-.03-.19-.16-.86.91v.01Zm23.78 3.55c.14 0 .34.05.42-.01.07-.06.07-.26 0-.34-.22-.26-.5-.59-.84-.11-.05.06.27.3 2.79 2.34 0-.67-.45-1.26-1.46-1.87-.1-.06-.38-.06-.46 0-.08.07.01.26-.02.38-.3 1.01.8 1.33 1.36 1.91.19-.14.39-.29-1.79-2.31v.01ZM276.9 30.71c-.15-.15-.28-.33-.47-.45-.09-.06-.33-.06-.41 0-.07.06-.07.26 0 .33.15.15.36.27.57.36.04.02.19-.15-2.98.16.41-.11.85-.18 1.25-.33.4-.15.78-.34 1.14-.55.07-.04.08-.32 0-.37-.69-.46-1.06-1.35-2.22-1.21-.14.02-.27.1-.39.16-.34.18-.28.35.11.55.85.46.22.75-.16 1.12-.07.07.15.35 3.57.22l-.01.01Zm67.38 57.69c.82 0 1.38.13 1.76-.03.54-.22 1.11-.58 1.37-1 .37-.58-.57-.72-.88-1.08-.26-.32-.35-.29-.79.11-.72.67-1.46 1.29-2.64 1.38-.08 0-.22.2-.19.26.05.11.19.25.32.27.46.06.93.07 2.01-2.31h.49c-.09-1.05 1.07-.63 1.61-.94.12-.07.3-.19.28-.27-.02-.1-.23-.17-.31-.28-.22-.31-.48-.62-.61-.96-.13-.33-.08-.82-.71-.54-.91.4-1.78.87-2.63 1.36-.56.32-.54.8-.08.78.92-.03 1.44.36.98 3.24l.02.01Zm-97.32-16.73c-.8.11-1.58-1.45-2.4-.02-.91 0-1.82-.03-2.73.04-.45.03-.79.32-.69 1.16 0-.13.06-.34 0-.37-.64-.29-1.27-.66-1.96-.78-.89-.16-.73.52-.98.97-.44.8-1.12 1.51-2.42 1.45-.06 0-.27.4-.19.52.5.8 1.73 1.19 2.57.63.73-.48 1.43-.34 2.17-.42.27-.03.51-.22.77-.34-.07-.09-.12-.22-.22-.27-1.25-.65-.06-.96.28-1.77 1.16.08 2.49-.34 3.34.74.05.07.28.07.42.05.59-.05 1.36.06 1.71-.21.34-.26.24-.9 1.45-2.18-.15 0-.33-.04-.44 0-.24.11-.61.25-.65.42-.14.74.6.34.87.33.32 0 .64-.28.95-.43-.24-.11-.49-.22-1.85.47v.01Zm13.15-27.09c.31 0 .63-.04.92.01.47.09.63-.01.45-.39-.05-.11-.19-.26-.3-.26-.73-.05-1.46-.08-2.19-.08-.11 0-.32.23-.31.25.15.17.3.39.52.45.27.08.61.02 5.48 2.41.4 0 .74.06 1.02-.02.22-.06.37-.29.52-.46.02-.02-.22-.26-.32-.25-1.36.14-1.79-.89-2.66-1.37-.35-.19-.85-.26-1.28-.26-.72 0-.71 1.08-1.71.81-.16-.04-.57.22-.68.41-.12.21-.09.53.01.76.06.13.57.27.62.21.73-.67 1.47-.96 2.32-.14.64.61 1.48.2-2.43-2.06l.02-.02Zm24.62-16.73c0-.25.03-.51 0-.75-.12-.7-.93-1.11-1.51-.77-.37.22-.68.51-.97.8-.13.13-.15.35-.15.53 0 .07.22.18.34.19.76.02 1.53 0 2.75 1.62 1.33.38 2.42-.54 3.7-.83 1.18-.27.34-.66-.02-.96-.26-.21-.09-.29.13-.57.59-.73.51-.85-.32-.83-.6.02-1.25.03-1.77.24-.81.32-1.09 1.23-2.16 1.39-.28.04-.39.64-.69.89-.31.25-.37.41.08.56.27.09.59.08.6-1.48l-.01-.03ZM54.52 53.51c.953-.767 2.227-1.087 3.82-.96.31.02.65.05.94-.01.27-.06.5-.25.75-.38-.11-.09-.2-.19-.32-.27-.56-.4-.94-.97-1.9-.95-1.5.03-3.1.33-4.36-.75-.11-.1-.72 0-.82.14-.21.3-.23.7-.35 1.05-.14.39.24.29.44.43.69.48 1.21 1.13-.43.31 0-.12.06-.28-.02-.34-.07-.06-.31-.06-.41 0-.32.18-.72.41-.13.69.08.04.37-.22 2.78 1.05l.01-.01Zm30.76-13.16c.37.08.82.14 1.23.26.48.14.82.47.62.88-.22.45-.72.82-.92 1.27-.34.76.88 1.03.92 1.65.04.62.3 1.32-.5 1.8-.59.35-.25.72.18.73 1.38.04 2.86.3 3.94-.77.74.12 1.1-.36 1.61-.65.58-.33 1.19-.17 1.63.29.45.49.88.19.89-.16.06-1.39.45-2.96-1.9-3.48-.04 0-.07-.31 0-.37.22-.17.48-.3.75-.4.13-.05.39-.07.47 0 1.42 1.23 3.24.68 4.91.76.2 0 .62-.34.6-.48-.15-.92.24-1.68.86-2.4-.27-.09-.55-.26-.82-.26-.27 0-.78.15-.79.26-.13 1.3-.58 1.29-1.83.58-.66-.37-1.88-.02-2.84-.08-1.67-.1-3.5.46-4.9-.79-1.55.02-3.26-.33-4.11 1.34v.02Zm162.66 32.5c.21.18.4.39.64.55.7.49 1.34 1.21 2.15 1.4 1.04.25 1.43-.84 2.19-1.25.24-.13.58-.31.8-.26 1.51.34 2.4-1.17 3.91-.84.22.05.58-.13.8-.27.37-.24.76-.51 1-.83.27-.36 1.18-.43.76-1.26-1.05 0-2.14-.01-3.23 0-.91.02-1.72 0-2.61.55-.74.45-2.08.24-3.15.34-.12.01-.33.18-.32.27.2 1.87-1.69.95-2.6 1.33-.13.06-.23.18-.34.27Zm-14.15-28.24c.17-.12.27-.21.4-.28.38-.19.76-.41 1.17-.53.28-.08.64.02.95-.02.59-.08 1.38.31 1.75-.28.47-.75.8-1.57 1.1-2.38.04-.11-.38-.5-.56-.49-.75.04-1.59-.3-2.24.3-.18.16-.44.25-.67.38-.68-1.19-2.4-.28-3.29-1.09-.15-.14-.44-.17-.67-.25-.08.36-.37.94-.22 1.03.9.56.79 1.31.96 2.07.13.56.85 1.02 1.3 1.54h.02Zm106.13 41.82v-1.26c0-.13-.02-.26-.05-.38-.07-.3-1.34-.57-2.22-.33-.3.08-.64.59-.6.87.11.73 1.22 1.15.95 2.06-.14.46-1.16 1.86-1.51 1.73-.53-.2-.95-.55-1.54-.77-1.18-.44-2.04 1.45-3.14.16-.45.31-.98.57-1.32.95-.09.1.35.54.56.81.5.66.86.09 1.38 0 1.36-.25 2.81-.24 4.23-.24.73 0 1.14-.28 1.62-.64 1.08-.82 2.05-1.66 1.64-2.95v-.01Zm-82.38-27.95c-.67-.28-1.32-.58-1.99-.83-.4-.15-1.15-.39-1.24-.29-.93 1.06-2.26.77-3.48.75-.81-.01-1.02.55-1.49.86-.15.1-.18.36-.19.55 0 .06.22.17.36.2 1.11.18 2.04-.15 2.9-.68.75.99 1.95.61 3.01.69 1.18.1 1.49-.74 2.12-1.26v.01Zm99.81 27.41c-.15-.22-.25-.51-.47-.62-.25-.11-.62-.07-.93-.04-.67.06-1.18-.09-1.68-.5-.32-.27-2.71.81-2.73 1.17-.03.53.93 1.61 1.58 1.58.43-.02.66-.94 1.36-.23.46.46 1.1.58 1.61.18.54-.41 1.36-.73 1.26-1.53v-.01ZM87.41 74.78c1.43 0 2.82.04 4.21-.03.43-.02.4-.3.09-.54-.86-.68-.77-2.33-2.85-1.77-.39.11-.8-.26-.76-.76.02-.22-.15-.62-.31-.64-.59-.09-.69.27-.63.66.15 1-.31 2.05.26 3.07l-.01.01Zm211.8-44.11c-.09-.09-.16-.24-.28-.27-.71-.2-1.52-.2-1.99-.82 0 0-.46.16-.64.3-.72.58-1.36.47-1.98-.1-.11-.1-.22-.19-.34-.28-.78.74-1.8.85-2.91.75-.11 0-.35.16-.34.22.04.19.11.42.26.55 1.09.94 1.11.95 2.63.23.63-.3 1.14-.34 1.64.11.61.56 1.2.68 1.99.15.43-.29 1.07-.37 1.61-.57.14-.05.23-.18.34-.27h.01Zm-25.96 2.49c.12.09.23.26.35.26 1.12.02 2.25.06 3.37 0 .79-.04 1.19.88 1.46.71.64-.39 1.22-.71 2.03-.81.45-.06.45-.34.09-.54-.6-.32-.76-.79-.71-1.35 0-.06-.6-.24-.62-.2-.65.85-1.69.64-2.6.6-1.34-.07-2.13.91-3.33 1.07-.03 0-.02.18-.03.27l-.01-.01ZM104.94 73.95c-.74.68-1.47 1.35-2.2 2.03-.35.33-.07 1.22.53 1.23 1.05.03 1.43.35 1.32 1.17-.01.09.2.29.27.28.24-.03.59-.1.65-.23.11-.23-.08-.56.05-.78 1.23-2.09 1.24-2.08-.63-3.71l.01.01Zm331.35-58.04c-.47 0-.94-.02-1.41 0-.67.03-2.09 1.08-1.82 1.29.53.41.84 1.06 1.78 1.11 1.21.07 2.43-.43 2.85-1.44.1-.25-.22-.69-.49-.94-.14-.13-.59-.02-.91-.02ZM239.25 59.29c.66.49.97 1.36 2.16 1.24.6-.06.85 1.02 1.37.55.61-.56 1.47-.38 2.03-.8.06-.05.08-.2.04-.27-.07-.11-.22-.27-.33-.27-1.28.07-2.52.14-2.66-1.36 0-.1-.93-.31-1.22-.18-.54.24-.93.71-1.39 1.09Zm-14.83 38.68c.51-.27 1.44.39 2.04-.29.57-.63.95-.36 1.38.09.09.09.27.21.37.18.43-.09.9-.17 1.24-.38.16-.1.15-.52.04-.74-.1-.2-.43-.44-.67-.44-.94-.01-1.89.01-2.83.12-.36.04-.96.5-.99.48-1.12-1.18-1.44.17-2.07.45-.01 0 .15.45.31.5.28.09.63.02 1.17.02l.01.01Zm136.81-13.24c-.03 1.36.38 1.6 1.88.88.6-.29 1.13-.33 1.75-.4 1.06-.11 1.05-.14.51-.98-.14-.21-.16-.48-.27-.7-.11-.23-.28-.44-.42-.65-.18.17-.43.32-.53.52-.59 1.2-.6 1.23-2.14.44-.32-.16-.51-.24-.68.12-.11.23-.07.51-.1.76v.01ZM30.18 47.78c.32 0 .65.02.97 0 .53-.05.79-.27.83-.76.07-.84-.13-1.5-.99-2.07-.54-.36-.71-.11-1.06.11-.75.47-.99.92-.06 1.42.04.02-.02.18-.05.27-.207.68-.087 1.023.36 1.03Zm115.03.8c-.26.1-.75.19-.75.3-.05.87-.07 1.75.05 2.61.02.13 1.06.36 1.17.25.54-.55.97-1.19 1.34-1.84.19-.34-1.05-1.21-1.81-1.32Zm-20.44-3.44c-.77-1.82-2.63-1.28-4.22-1.29-.15 0-.47.41-.43.59.06.33.27.88.52.92.76.12 1.57.08 2.36.03.59-.04 1.27.25 1.77-.25Zm237.34 36.29c-2.49-.17-2.88 0-2.76.19.73 1.11-2.39 1.56-.68 2.71l3.44-2.91v.01Zm-68.67-55.15c-.11-.23-.17-.6-.35-.64-.39-.09-1.05-.17-1.23 0-.56.54-.45 1.41-1.3 1.89-.12.07.07.76.33.99.41.36 1.64.06 1.51-.24-.43-1.01 1.19-1.19 1.04-2ZM85.22 80.81c0 .26-.08.54.03.76.07.15.38.26.6.33.06.02.31-.17.31-.26-.02-.69.05-1.26 1.18-1.22.5.01.78-.26.8-.73.03-.78-.85-1-1.31-1.48-.04-.04-.42.15-.64.23.66 1.06-1.6 1.31-.97 2.37Zm207.05-37.95c.02-.2.08-.34.03-.38-.54-.46-1.16-.87-1.63-1.38-.59-.63-1.36-.5-2.11-.48-.27 0-.74.15-.76.27-.07.46.35.56.82.51.59-.06.92.23.91.62-.03.91.58 1.06 1.47.97.43-.04.86-.09 1.27-.14v.01ZM232.5 45.7c-.67-.5-1.37-1-2.03-1.52-.78-.61-1.67-.41-2.56-.25-.13.02-.22.17-.33.26.11.09.2.23.33.26.84.19 1.94.13 1.64 1.31-.02.09.45.4.68.39.73-.02 1.56.27 2.28-.46l-.01.01ZM97.58 82.83c.77-.03 1.05-.17 1.86-.94.43-.41.44-1.19-.03-1.3-.39-.1-.94-.15-1.25 0-.51.26-.94.67-1.3 1.08-.15.17-.12.54 0 .74.11.19.46.28.71.41l.01.01Zm217.64-51.78c.63 0 1.3.1 1.87-.04.27-.07.45-.59.51-.92.03-.18-.23-.53-.44-.59-1.08-.29-2.64.22-3.21 1.03-.07.09.16.45.33.5.27.09.62.02.93.02h.01Zm1.23 1.88c1.02.73 1.85 1.33 2.79 2.01l1.13-1.24c-.69-.51-1.18-1.31-2.37-1.06-.43.09-.87.16-1.55.29Zm-23.4 2.1c1.04.04 2.17.16 2.82-.82.11-.17.17-.36.25-.55-.28-.08-.64-.28-.81-.2-1.06.46-2.06 1.04-3.37.81-.08-.01-.33.21-.31.25.1.18.24.43.43.49.28.08.62.02.98.02h.01Zm54.61-2.2c-.05-.24-.06-.49-.16-.71-.18-.37-.36-.31-.67-.02-.27.25-.72.4-1.12.53-1.02.35-1.03.34-.44.82.33.27.65.55 1.02.77.42.25 1.33-.18 1.37-.62.03-.25 0-.51 0-.77ZM83.3 56.54c.47 0 .95.02 1.42-.01.12 0 .25-.15.33-.25.05-.07.03-.25 0-.26-1.02-.19-1.76-.87-2.77-1.06-.58-.11-.92.22-.9.62.02.33.22.79.52.92.37.16.92.04 1.39.04h.01Zm25.24-6.83c-1.34-.52-2.62-.45-3.99-.06.28.26.46.45.66.63.1.1.21.19.33.27.85.58 1.11.6 1.93.04.36-.24.67-.54 1.07-.87v-.01ZM81.35 62.89c0 .47-.02.73 0 .99.04.44.96.87 1.37.62.37-.22.68-.51 1.02-.77.11-.09.33-.2.31-.27-.04-.19-.13-.46-.3-.53-.39-.15-.86-.14-1.26-.29-.27-.1-.45-.35-.67-.53-.2.31-.39.63-.48.77l.01.01Zm34.86-14.74c0 .13-.03.26 0 .38.07.23.19.45.28.68.22-.08.48-.11.66-.24.35-.25.73-.51.97-.83.14-.19.15-.62 0-.73-.31-.22-.76-.37-1.18-.4-.22-.02-.59.2-.71.38-.12.21-.03.5-.03.76h.01Zm259.35 31.73c-.12-.08-.23-.22-.35-.23-.62-.02-1.29-.11-1.86.03-.26.07-.47.62-.47.95 0 .39.34.63.93.61.95-.02 1.18-.76 1.8-1.1.04-.02-.03-.17-.05-.26ZM207.18 42.12c.15.25.27.66.58.85.23.13 1.51-1.4 1.41-1.79-.1-.39-.43-.67-.98-.56-.28.05-.69.13-.77.29-.17.33-.15.73-.24 1.21Zm8.81-1.09c-.65-.67-1.49-.41-2.22-.4-.47 0-.84.31-.7.78.07.23.14.51.34.64.21.13.66.22.84.12.62-.33 1.16-.76 1.74-1.15v.01Zm223.3-23.44c.4-.39.83-.75 1.18-1.16.15-.18.2-.48.16-.71-.08-.4-.35-.71-.93-.6-.28.05-.74.12-.78.26-.23.71-.55 1.46.38 2.21h-.01Zm-338.1 34.97c-.16 0-.32.02-.47 0-.58-.08-.93.21-.94.6 0 .33.18.83.47.95.3.12.88-.05 1.24-.22.39-.19.71-.51.98-.82.06-.07-.18-.43-.35-.49-.27-.09-.62-.02-.93-.02ZM350.67 32.7c.59-.07 1.07-.06 1.48-.19.19-.06.28-.4.35-.63.13-.46-.21-.72-.68-.81-.47-.08-2.33.97-2.17 1.16.22.26.73.35 1.03.48l-.01-.01Zm-245.6 9.51c.33-.27.68-.52.97-.81.15-.14.23-.35.27-.54.01-.06-.2-.23-.32-.23-.62-.02-1.24-.02-1.85 0-.12 0-.33.17-.32.23.04.19.13.39.27.54.3.29.65.55.97.81h.01Zm-57.84 7.17-.73.39c.68.44 1.02 1.32 2.14 1.19.26-.03.49-.24.73-.37-.71-.41-.98-1.34-2.14-1.21Zm143.22-8.09.33-.27c-.71-.42-1.05-1.3-2.18-1.19-.14.01-.27.07-.4.13-.44.18-.41.32 0 .55.49.27.9.65 1.41.89.19.09.56-.06.85-.11h-.01ZM293.94 94c.31 0 .63.03.94-.01.12-.02.25-.15.33-.26.05-.07.04-.23-.01-.26-.74-.37-1.77-.31-2.27-1.04-.15.21-.42.4-.44.62-.08.79.19.94 1.45.95Zm-63.92-43.79c-.94-.24-1.41.31-1.94.76-.45.38-.46.75-.01.8.3.03.7.11.91-.01.49-.29.92-.67 1.32-1.05.06-.06-.18-.34-.27-.5h-.01Zm-11.64 47.78c.63 0 1.27.03 1.9-.02.14-.01.28-.32.34-.51.02-.06-.2-.25-.32-.25-.95-.02-1.9-.03-2.85.01-.13 0-.28.32-.34.51-.02.06.2.23.32.25.31.04.63.01.95.01Zm175.19-39.04c.82 0 1.3.05 1.77-.02.27-.04.5-.25.75-.38-.25-.13-.5-.38-.75-.38-.93 0-1.86.05-2.79.11-.12 0-.31.17-.31.26s.18.24.31.27c.44.08.9.12 1.02.13v.01Zm-66.38 3.71c-.02-.1 0-.22-.06-.28-.38-.37-2.19-.39-2.52.05-.19.25-.05.69-.01 1.03.01.1.21.18.32.26.47-.78 1.55-.67 2.28-1.07l-.01.01ZM182.6 65.37c.3-.28.63-.55.91-.85.15-.15.22-.35.32-.53-.27-.09-.52-.22-.8-.25-.46-.04-.93-.03-1.39 0-.12 0-.34.16-.33.22.03.19.1.39.24.53.3.29.65.55 1.04.87l.01.01Zm227.53-40.7c-.31 0-.63-.02-.94.01-.13.01-.25.15-.33.25-.05.07-.06.23-.02.26.73.39 1.78.32 2.27 1.06.16-.2.43-.4.45-.61.09-.8-.19-.96-1.43-.97Zm-173.35 7.97c-.31 0-.63-.02-.94.01-.13.01-.25.15-.33.25-.05.07-.06.23-.02.26.73.39 1.78.32 2.27 1.06.16-.2.43-.4.45-.61.09-.8-.19-.96-1.43-.97Zm49.87 10.96c0 .13-.05.28.01.38.13.22.31.41.47.61.16-.2.35-.39.48-.61.19-.32.24-.73.52-.97.41-.35.38-.58-.08-.8-.12-.06-.31 0-.46-.01-.59-.06-.84.22-.92.63-.05.25-.01.51-.01.77h-.01Zm-154.01-1.02c.14-.82-.22-1.13-.95-1.18-.6-.04-.86.23-.95.62-.14.62.24 1.03.97.96.37-.04.7-.3.93-.4ZM331.2 86.6c-.16-.12-.41-.47-.75-.55-.73-.17-1.14.18-1.2.78-.05.5.27.7.76.78.76.12 1.19-.19 1.19-1.01Zm77.5-51.94c-.15-.12-.25-.28-.37-.29-.42-.03-.98-.14-1.23.03-.27.18-.3.65-.33 1 0 .09.51.33.58.29.48-.31.91-.68 1.35-1.03Zm-145.26 3.19c-.15-.12-.25-.28-.37-.29-.42-.03-.98-.14-1.23.03-.27.18-.3.65-.33 1 0 .09.51.33.58.29.48-.31.91-.68 1.35-1.03Zm23.72 1.17c.31 0 .63.03.94-.01.13-.02.34-.2.32-.26-.07-.19-.22-.49-.36-.5-.62-.06-1.26-.04-1.89-.01-.12 0-.34.2-.31.26.07.19.19.45.37.51.28.09.62.02.93.02v-.01Zm19.6.8c1.01.04 1.49-.41 1.17-1.16-.06-.15-.51-.34-.59-.29-.37.22-.68.52-1.01.79-.11.09-.21.18-.31.27.24.13.49.26.73.39h.01Zm-127.54-.86c-.3.15-.74.27-1 .51-.15.14-.13.53 0 .74.27.43.63.33.97 0 .2-.2.44-.36.65-.55.1-.08.17-.18.26-.27l-.87-.43h-.01Zm41.7 1.26c-.15-.37-.29-.72-.45-1.05-.01-.03-.26-.04-.31 0-.46.43-.46 1.67 0 2.1.05.05.3.03.31 0 .16-.34.29-.68.45-1.05Zm207.05.5c.24.29.4.49.56.69l.33-.27c.22-.18.47-.34.65-.55.14-.15.19-.36.28-.54-.42-.08-.93-.31-1.25-.19-.3.11-.41.58-.58.85l.01.01Zm-178.57-.1c-.31 0-.66-.06-.93.02-.18.06-.3.32-.37.51-.02.06.2.25.31.26.63.03 1.26.05 1.89-.01.15-.01.29-.32.36-.5.02-.06-.19-.24-.32-.26-.31-.04-.63-.01-.94-.01v-.01Zm-141.44 2.39c.31 0 .66.06.93-.02.18-.06.3-.32.37-.5.02-.06-.2-.25-.31-.26-.63-.03-1.26-.05-1.89.01-.15.01-.29.32-.36.5-.02.06.19.24.32.26.31.04.63.01.94.01Zm165.22 2.44c-.18-.25-.32-.61-.62-.83-.18-.13-.65-.11-.89 0-.52.22-.4.52 0 .8.24.16.44.36.66.54.1.08.22.14.33.21.15-.2.3-.41.52-.71v-.01Zm-25.72 1.54c.31 0 .63.03.94-.01.13-.02.34-.2.32-.26-.07-.19-.22-.49-.36-.5-.62-.06-1.26-.04-1.89-.01-.12 0-.34.2-.31.26.07.19.19.45.37.5.28.09.62.02.93.02ZM33.9 49.39l.81-.28c-.12-.18-.2-.38-.35-.54-.19-.2-.43-.37-.65-.54-.1-.08-.22-.14-.33-.21-.15.2-.4.4-.43.61-.08.55.12.99.96.95l-.01.01Zm200.28 1.33c.03-.19-1.02-1.29-1.3-1.31-.1 0-.3.16-.31.26-.03.35-.16.81.06 1.01.23.22.79.22 1.22.28.09.01.22-.16.33-.24Zm-132.93 1.1c.3-.28.63-.55.91-.85.15-.15.21-.36.32-.54-.42-.09-.88-.3-1.26-.23-.53.1-.68.82-.36 1.28.07.11.21.18.4.33l-.01.01Zm284.66-.04c.27-.22.49-.33.47-.4-.06-.35-.05-.82-.32-1.01-.25-.18-.81-.09-1.23-.07-.11 0-.32.24-.32.25.45.42.92.83 1.39 1.24l.01-.01Zm-269.32 1.59c.5 0 .68.04.81 0 .26-.1.5-.26.75-.39-.25-.13-.49-.37-.75-.38-.61-.02-1.22.05-1.82.11-.12.01-.22.17-.34.26.11.09.21.24.34.26.44.08.9.12 1.01.13v.01Zm17.06 0-.8.26c.1.18.17.38.32.54.19.2.43.37.65.55.1.08.22.16.33.24.16-.2.42-.39.45-.61.09-.69-.19-.93-.94-.97l-.01-.01Zm101.55 7.11c-.36.2-.6.33-.84.46l.33.27c.22.18.42.38.66.53.19.11.43.16.65.23.09-.35.37-.76.23-1.03-.14-.25-.71-.34-1.03-.47v.01ZM97.81 74.88l-.8.26c.1.18.17.38.32.54.19.2.43.37.65.55.1.08.22.16.33.24.16-.2.42-.39.45-.61.09-.69-.19-.93-.94-.97l-.01-.01Zm14.52 1.78c.05-.83-.5-1.22-1.41-.97-.18.05-.41.42-.36.49.27.31.63.56.96.83.11.09.22.17.33.26l.48-.6v-.01ZM105.38 81c.05-.57-.68-.69-.96-1.06-.08-.11-.21-.18-.32-.27-.16.2-.44.39-.46.6-.11.83.44 1.2 1.38.98.13-.03.23-.15.37-.25h-.01Zm180.07 13.8c1.01.04 1.49-.41 1.17-1.16-.06-.15-.51-.34-.59-.29-.37.22-.68.52-1.01.79-.11.09-.21.18-.31.27.24.13.49.26.73.39h.01Zm-109.13 6.43c-.18-.25-.32-.61-.62-.83-.18-.13-.65-.11-.89 0-.52.22-.4.52 0 .8.24.16.44.36.66.54.1.08.22.14.33.21l.52-.71v-.01Zm232.42-79.86c-.21-.16-.53-.56-.69-.52-.52.14-.52.98-.03 1.28.07.05.29.05.31.02.14-.21.23-.43.41-.78Zm40.45-3.6c-.28-.4-1.24-.41-1.6-.02-.06.06-.07.2-.02.26.27.41 1.23.42 1.59.02.06-.06.02-.18.03-.27v.01Zm-5.99-7.57c.11-.09.31-.18.31-.27 0-.09-.18-.23-.31-.26-.28-.07-.59-.16-.86-.12-.27.04-.49.25-.74.38.24.13.47.33.74.38.27.05.58-.06.87-.11h-.01Zm-253.31 91.65-.56-.7c-.16.2-.48.42-.45.6.05.34.29.66.45.99.2-.31.39-.63.56-.89Zm17.2-1.22c-.28-.4-1.24-.41-1.6-.02-.06.06-.07.2-.02.26.27.41 1.23.42 1.59.02.06-.06.02-.18.03-.27v.01Zm10.81-.08c-.05-.24-.08-.49-.17-.71-.04-.11-.21-.18-.32-.28-.16.33-.41.65-.45.99-.02.18.29.4.45.6l.48-.6h.01Zm46.92-1.39c-.81-.2-1.22-.36-1.63-.37-.24 0-.49.24-.73.37.24.13.49.38.73.37.42 0 .83-.18 1.63-.37Zm79.81-5.92c.42-.14.69-.23.95-.34.04-.02.03-.2-.02-.26-.36-.4-1.39-.4-1.55.03-.05.13.43.4.63.57h-.01Zm-67.77-.91-.85.46c.24.13.51.39.73.37.41-.04.81-.24 1.21-.37l-1.09-.46Zm36.44-1.88c-.24.67-.44 1-.45 1.34 0 .2.29.4.45.6.16-.2.46-.41.45-.6-.01-.34-.21-.68-.45-1.34Zm-22.91.08c0-.09.03-.21-.03-.27-.36-.4-1.32-.39-1.59.02-.04.07-.03.2.02.26.36.4 1.32.38 1.6-.02v.01Zm-164.63-2.64c-.28-.4-1.24-.41-1.6-.02-.06.06-.07.2-.02.26.27.41 1.23.42 1.59.02.06-.06.02-.18.03-.27v.01Zm-19.15-1.18c-.21-.16-.53-.56-.69-.52-.52.14-.52.98-.03 1.28.07.05.29.05.31.02.14-.21.23-.43.41-.78Zm1.73-7.91c-.2.17-.68.44-.63.57.17.43 1.19.43 1.55.03.06-.06.06-.24.02-.26-.25-.11-.53-.19-.95-.34h.01Zm11.62-2.39c-.2.17-.68.44-.63.57.17.43 1.19.43 1.55.03.06-.06.06-.24.02-.26-.25-.11-.53-.19-.95-.34h.01Zm109.45-3.2-.85.46c.24.13.51.39.73.37.41-.04.81-.24 1.21-.37l-1.09-.46Zm42.19-2.72c-.81-.2-1.22-.36-1.63-.37-.24 0-.49.24-.73.37.24.13.49.38.73.37.42 0 .83-.18 1.63-.37ZM98.63 65.58c-.28-.4-1.24-.41-1.6-.02-.06.06-.07.2-.02.26.27.41 1.23.42 1.59.02.06-.06.02-.18.03-.27v.01ZM26.96 51.23c-.28-.4-1.24-.41-1.6-.02-.06.06-.07.2-.02.26.27.41 1.23.42 1.59.02.06-.06.02-.18.03-.27v.01Zm209.2-.22c.42-.14.69-.23.95-.34.04-.02.03-.2-.02-.26-.36-.4-1.39-.4-1.55.03-.05.13.43.4.63.57h-.01Zm-98.58-.74c-.18-.35-.27-.57-.41-.78-.02-.03-.24-.03-.31.02-.49.3-.49 1.14.03 1.28.16.04.48-.36.69-.52Zm-48.63-.86c.42-.14.69-.23.95-.34.04-.02.03-.2-.02-.26-.36-.4-1.39-.4-1.55.03-.05.13.43.4.63.57h-.01Zm99.77-1.71c-.36.2-.6.33-.85.46.24.13.51.39.73.37.41-.04.81-.24 1.21-.37l-1.09-.46Zm-49.41.91c.42-.14.69-.23.95-.34.04-.02.03-.2-.02-.26-.36-.4-1.39-.4-1.55.03-.05.13.43.4.63.57h-.01Zm211.12-4.89c-.2.17-.68.44-.63.57.17.43 1.19.43 1.55.03.06-.06.06-.24.02-.26-.25-.11-.53-.19-.95-.34h.01Zm-70.32.85.73-.4c-.24-.13-.51-.39-.73-.37-.41.04-.81.24-1.21.37.11.09.2.23.33.26.28.07.58.09.87.14h.01Zm-73-.85c-.2.17-.68.44-.63.57.17.43 1.19.43 1.55.03.06-.06.06-.24.02-.26-.25-.11-.53-.19-.95-.34h.01Zm36.78-1.01c0-.09.03-.21-.03-.27-.36-.4-1.32-.39-1.59.02-.04.07-.03.2.02.26.36.4 1.32.38 1.6-.02v.01Zm15.51-2.06c.42-.14.69-.23.95-.34.04-.02.03-.2-.02-.26-.36-.4-1.39-.4-1.55.03-.05.13.43.4.63.57h-.01Zm-74.57-1.59c.42-.14.69-.23.95-.34.04-.02.03-.2-.02-.26-.36-.4-1.39-.4-1.55.03-.05.13.43.4.63.57h-.01Zm130.55-4.96c.49-.23.5-1.02.02-1.32-.07-.05-.24-.06-.32-.02-.49.22-.51 1.01-.02 1.31.07.05.22.02.33.02l-.01.01Zm-81.92-.56c-.18-.35-.27-.57-.41-.78-.02-.03-.24-.03-.31.02-.49.3-.49 1.14.03 1.28.16.04.48-.36.69-.52Zm168.51-5.8c-.21-.16-.53-.56-.69-.52-.52.14-.52.98-.03 1.28.07.05.29.05.31.02.14-.21.23-.43.41-.78Zm18.77-4.27c-.81-.2-1.22-.36-1.63-.37-.24 0-.49.24-.73.37.24.13.49.38.73.37.42 0 .83-.18 1.63-.37Zm22.67-11.84-.34-.51c-.11.09-.32.2-.3.26.05.19.2.36.3.53l.34-.28Zm-21.31 5.35-.34-.28c-.11.18-.25.35-.3.53-.02.07.2.17.3.26l.34-.51Zm-9.4 1.03c.13.11.24.19.34.28.11-.18.25-.35.3-.53.02-.07-.2-.17-.3-.26-.12.17-.23.35-.34.51Zm-8.23 4.38-.62.28c.11.09.24.26.32.25.23-.04.43-.16.65-.25l-.34-.28h-.01Zm-6.43 3.47c-.11-.09-.24-.26-.32-.25-.23.04-.43.16-.65.25.11.09.24.26.32.25.23-.04.43-.16.65-.25Zm-76.85 1.08.34-.28c-.22-.09-.42-.21-.65-.25-.08-.01-.21.16-.32.25l.62.28h.01Zm1.94.23-.62.28c.11.09.24.26.32.25.23-.04.43-.16.65-.25l-.34-.28h-.01Zm136.27.57.62-.28c-.11-.09-.24-.26-.32-.25-.23.04-.43.16-.65.25l.34.28h.01Zm-133.64 1.59.62-.28c-.11-.09-.24-.26-.32-.25-.23.04-.43.16-.65.25l.34.28h.01Zm127.35-.4-.34-.28c-.11.18-.25.35-.3.53-.02.07.2.17.3.26.12-.17.23-.35.34-.51Zm-205.79 2.79.62-.28c-.11-.09-.24-.26-.32-.25-.23.04-.43.16-.65.25l.34.28h.01Zm109.71-.57-.62.28c.11.09.24.26.32.25.23-.04.43-.16.65-.25l-.34-.28h-.01Zm-155.71.97c-.13-.11-.24-.19-.34-.28-.11.18-.25.35-.3.53-.02.07.2.17.3.26l.34-.51Zm50.01 1.31c-.11.09-.32.2-.3.26.05.19.2.36.3.53.11-.09.32-.2.3-.26-.05-.19-.19-.36-.3-.53Zm1.8.68.62-.28c-.11-.09-.24-.26-.32-.25-.23.04-.43.16-.65.25l.34.28h.01Zm90.06.8.62-.28c-.11-.09-.24-.26-.32-.25-.23.04-.43.16-.65.25l.34.28h.01Zm-21.17.12c-.11.09-.32.2-.3.26.05.19.2.36.3.53.11-.09.32-.2.3-.26-.05-.19-.19-.36-.3-.53Zm83.63.51c-.11-.17-.23-.34-.34-.51-.11.09-.32.2-.3.26.05.19.2.36.3.53l.34-.28Zm-13.56.8-.34-.51c-.11.09-.32.2-.3.26.05.19.2.36.3.53l.34-.28Zm-148.17.8c-.11-.17-.23-.34-.34-.51-.11.09-.32.2-.3.26.05.19.2.36.3.53l.34-.28Zm-22.62.28c-.11.09-.32.2-.3.26.05.19.2.36.3.53.11-.09.32-.2.3-.26-.05-.19-.19-.36-.3-.53Zm3.87 0c-.11.09-.32.2-.3.26.05.19.2.36.3.53.11-.09.32-.2.3-.26-.05-.19-.19-.36-.3-.53Zm92.83.68.62-.28c-.11-.09-.24-.26-.32-.25-.23.04-.43.16-.65.25l.34.28h.01Zm5.33-.4-.34-.28c-.11.18-.25.35-.3.53-.02.07.2.17.3.26l.34-.51ZM124.6 39.69l.34-.28c-.22-.09-.42-.21-.65-.25-.08-.01-.21.16-.32.25l.62.28h.01Zm118.84 1.03-.34.28c.22.09.42.21.65.25.08.01.21-.16.32-.25l-.62-.28h-.01ZM123.01 41.8c-.11-.09-.24-.26-.32-.25-.23.04-.43.16-.65.25.11.09.24.26.32.25.23-.04.43-.16.65-.25Zm52.43.12c.13.11.24.19.34.28.11-.18.25-.35.3-.53.02-.07-.2-.17-.3-.26l-.34.51Zm2.63-.23c-.13-.11-.24-.19-.34-.28-.11.18-.25.35-.3.53-.02.07.2.17.3.26l.34-.51Zm77.47.23-.34-.51c-.11.09-.32.2-.3.26.05.19.2.36.3.53l.34-.28Zm169.62.68c-.11-.09-.24-.26-.32-.25-.23.04-.43.16-.65.25.11.09.24.26.32.25.23-.04.43-.16.65-.25Zm-324.42.8c-.11-.09-.24-.26-.32-.25-.23.04-.43.16-.65.25.11.09.24.26.32.25.23-.04.43-.16.65-.25Zm93.11.11.34.28c.11-.18.25-.35.3-.53.02-.07-.2-.17-.3-.26l-.34.51Zm73.32-.23c-.13-.11-.24-.19-.34-.28-.11.18-.25.35-.3.53-.02.07.2.17.3.26l.34-.51ZM74.73 45.1c.13.11.24.19.34.28.11-.18.25-.35.3-.53.02-.07-.2-.17-.3-.26l-.34.51Zm8.09.28c-.11.09-.32.2-.3.26.05.19.2.36.3.53.11-.09.32-.2.3-.26-.05-.19-.19-.36-.3-.53Zm-55.06.91-.62.28c.11.09.24.26.32.25.23-.04.43-.16.65-.25l-.34-.28h-.01Zm77.68.4-.34-.51c-.11.09-.32.2-.3.26.05.19.2.36.3.53l.34-.28Zm-23.24.8-.34-.51c-.11.09-.32.2-.3.26.05.19.2.36.3.53l.34-.28Zm321.52 0-.34-.51c-.11.09-.32.2-.3.26.05.19.2.36.3.53l.34-.28Zm-261.34.68c-.11-.09-.24-.26-.32-.25-.23.04-.43.16-.65.25.11.09.24.26.32.25.23-.04.43-.16.65-.25Zm104.73-.11.34.51c.11-.09.32-.2.3-.26-.05-.19-.2-.36-.3-.53l-.34.28Zm-62.12.91c-.11-.09-.24-.26-.32-.25-.23.04-.43.16-.65.25.11.09.24.26.32.25.23-.04.43-.16.65-.25Zm-106.53.8c-.11-.09-.24-.26-.32-.25-.23.04-.43.16-.65.25.11.09.24.26.32.25.23-.04.43-.16.65-.25Zm72.63 0c-.11-.09-.24-.26-.32-.25-.23.04-.43.16-.65.25.11.09.24.26.32.25.23-.04.43-.16.65-.25Zm236.92.28c.13-.11.24-.19.34-.28-.22-.09-.42-.21-.65-.25-.08-.01-.21.16-.32.25l.62.28h.01Zm-224.19.4c.11.17.23.34.34.51.11-.09.32-.2.3-.26-.05-.19-.2-.36-.3-.53l-.34.28Zm241 .11c-.11-.09-.24-.26-.32-.25-.23.04-.43.16-.65.25.11.09.24.26.32.25.23-.04.43-.16.65-.25Zm-2.56 1.08.62-.28c-.11-.09-.24-.26-.32-.25-.23.04-.43.16-.65.25l.34.28h.01Zm-364.82.23-.62.28c.11.09.24.26.32.25.23-.04.43-.16.65-.25l-.34-.28h-.01Zm52.78.17.34.51c.11-.09.32-.2.3-.26-.05-.19-.2-.36-.3-.53l-.34.28Zm-46.76.8-.34-.28c-.11.18-.25.35-.3.53-.02.07.2.17.3.26l.34-.51Zm69.38-.28c-.11.09-.32.2-.3.26.05.19.2.36.3.53.11-.09.32-.2.3-.26-.05-.19-.19-.36-.3-.53Zm262.1.28.34.51c.11-.09.32-.2.3-.26-.05-.19-.2-.36-.3-.53l-.34.28ZM22.92 54.03l.34-.28c-.22-.09-.42-.21-.65-.25-.08-.01-.21.16-.32.25l.62.28h.01Zm22.27-.57-.62.28c.11.09.24.26.32.25.23-.04.43-.16.65-.25l-.34-.28h-.01Zm25.18 1.36.34-.28c-.22-.09-.42-.21-.65-.25-.08-.01-.21.16-.32.25l.62.28h.01Zm102.65-.57-.62.28c.11.09.24.26.32.25.23-.04.43-.16.65-.25l-.34-.28h-.01Zm234.36 1.36.34-.28c-.22-.09-.42-.21-.65-.25-.08-.01-.21.16-.32.25l.62.28h.01ZM75.55 62.5c-.11-.09-.24-.26-.32-.25-.23.04-.43.16-.65.25.11.09.24.26.32.25.23-.04.43-.16.65-.25Zm215.82 6.49-.34-.51c-.11.09-.32.2-.3.26.05.19.2.36.3.53l.34-.28ZM74.93 72.35l.62-.28c-.11-.09-.24-.26-.32-.25-.23.04-.43.16-.65.25l.34.28h.01Zm158.62 1.19.34.51c.11-.09.32-.2.3-.26-.05-.19-.2-.36-.3-.53l-.34.28ZM83.93 81.11l.34-.28c-.22-.09-.42-.21-.65-.25-.08-.01-.21.16-.32.25l.62.28h.01Zm6.98-.17-.34-.51c-.11.09-.32.2-.3.26.05.19.2.36.3.53l.34-.28Zm25.8 1.88c-.11.09-.32.2-.3.26.05.19.2.36.3.53.11-.09.32-.2.3-.26-.05-.19-.19-.36-.3-.53Zm-9.2 1.19c-.11-.09-.24-.26-.32-.25-.23.04-.43.16-.65.25.11.09.24.26.32.25.23-.04.43-.16.65-.25Zm227.93 1.88.62-.28c-.11-.09-.24-.26-.32-.25-.23.04-.43.16-.65.25l.34.28h.01Zm-231.18.8.34-.28c-.22-.09-.42-.21-.65-.25-.08-.01-.21.16-.32.25l.62.28h.01ZM85.24 88c-.11-.09-.24-.26-.32-.25-.23.04-.43.16-.65.25.11.09.24.26.32.25.23-.04.43-.16.65-.25Zm97.47 1.08.34-.28c-.22-.09-.42-.21-.65-.25-.08-.01-.21.16-.32.25l.62.28h.01Zm96.84 1.59.34-.28c-.22-.09-.42-.21-.65-.25-.08-.01-.21.16-.32.25l.62.28h.01ZM103.3 93.86l.34-.28c-.22-.09-.42-.21-.65-.25-.08-.01-.21.16-.32.25l.62.28h.01Zm155.43 1.99.34.51c.11-.09.32-.2.3-.26-.05-.19-.2-.36-.3-.53l-.34.28Zm-27.4.8-.34-.28c-.11.18-.25.35-.3.53-.02.07.2.17.3.26l.34-.51Zm-27.46 1.31c-.11.09-.32.2-.3.26.05.19.2.36.3.53.11-.09.32-.2.3-.26-.05-.19-.2-.36-.3-.53Z" fill="#81C8C2"></path><path d="M339.23 15.54c-1.53.32-1.76-.88-2.77-1.14-.47.37-.93.73-1.39 1.1.25.2.46.41.7.57.31.21.3.41-.13.56-.65.21-1.13-.04-1.66-.39-.75-.49-1.62-.44-1.58-.09.03.29.5.54.59.85.1.33.06.73-.08 1.06-.06.14-.52.21-.81.23-.57.04-.85-.23-.88-.68-.09-1.22-.65-.82-1.28-.26-.06.05-.3.06-.32.02-.13-.22-.38-.48-.31-.67.12-.34.38-.67.67-.95.88-.87 2.07-1.48 2.45-2.74.18-.61 1.11-1.12 2.24-1.19.77-.04.05-1.31 1.07-1.48 1.33-.21 2.4-1.14 3.93-.83 1.08.22 1.3-.39 1.29-1.17 0-.13.86-.46 1.16-.36.55.19.99.61 1.44.96.58.45 1.07 1.04 1.74 1.33.24.1.69-.83 1.49-.73.15.02.39-.01.44.05.12.16.26.43.18.54-.27.36-1.21.87.01.95 1.63.1 1.16.94 1.23 2.21 0 .32-.05.05.01-.19.11-.39-.02-.52-.47-.37-.13.04-.31.16-.32.25-.06.6-.09 1.2-.1 1.8 0 .09.28.27.3.25.21-.12.48-.25.55-.43.09-.23.02-.5.02-1.32.27-.47.78-.4.79-.29.11 1.04.04 2.09.2 3.12.19 1.14-1.19 1.73-1.29 2.76 0 .07-1.01.26-1.21.1-.65-.51-1.7-.88-1.4-1.89.18-.61-.22-1.24.3-1.89.52-.66.37-.73-.06-1.1-.22-.19-.45-.37-.84-.69-.4.4-.83.78-1.2 1.19-.44.48-1.02.51-1.68.52-.43 0-.85.2-1.28.32.3.64.98.43 1.54.46.63.04 1.27 0 1.88.11.46.09.43.32.07.55-.69.45-1.08.99-.3 1.62.57.46.75.73-.27.92-.94.18-1.37.85-.93 1.27.41.4.84.85 1.39 1.07.63.25 1.11-.23 1.64-.52.46-.25 1.19-.22 1.8-.22.26 0 .53.21.79.33-.21.15-.39.34-.63.44-.4.16-1.02.18-1.19.43-.21.3-.19.81-.03 1.16.37.8.87 1.56 1.33 2.32.25.42-.73 1.75-.82 1.64-.81-1.02-1.41-.35-2.17.02s-1.63.63-2.48.79c-.59.11-.69.89-1.42.63-.41-.15-.73-.5-1.15-.59-1.62-.33-2.36-2.27-4.49-1.66-.07.02-.24-.16-.33-.27-1.05-1.2-2.48-1.52-4.18-1.29-.13.02-.35-.04-.41-.12-.15-.21-.33-.44-.33-.67 0-.23.13-.53.33-.66.21-.13.6-.18.88-.13 1.36.23 1.92-.56 2.55-1.3-.66-.57-1.51-.26-2.26-.29-1.64-.07-1.65-.04-3.46-.81 0-.4-.04-.8.01-1.19.05-.36.11-.97.34-1.03.54-.15.51.32.64.67.41 1.1 1.29 1.7 2.81 1.57.55-.05 1.02-.19 1.01-.59-.03-1.14 1.27-1.42 1.88-2.15.59-.71.89-.04 1.38.14.54.2 1.22.19 1.83.16.5-.02.82-.29.77-.79-.05-.52-.01-1.06.27-1.95.09-.24-.12-.13-.27.02-.07.07-.01.23-.01.35.14 0 .34.05.42 0 .18-.12.33-.3.44-.47.02-.03-.19-.16-.58.11l-.03.03Zm4.64-3.72-.56-.69-.33.27c-.22.18-.47.34-.65.55-.14.15-.19.36-.28.54.42.08.93.31 1.25.19.3-.11.41-.58.58-.85l-.01-.01Zm-4.89.52c-.15-.12-.25-.28-.37-.29-.42-.03-.98-.14-1.23.03-.27.18-.3.65-.33 1 0 .09.51.33.58.29.48-.31.91-.68 1.35-1.03Zm5.44 12.44-.62.28c.11.09.24.26.32.25.23-.04.43-.16.65-.25l-.34-.28h-.01ZM370.91 85.53c.02-.95.02-.99 1.37-1.09.65-.05 1.23-.06 1.69-.52.17-.17.63-.35.79-.27.99.47 2.25.58 2.93 1.45.23.29.36.81.64.87.59.12 1.27.06 1.87-.05.45-.08.47-.36.11-.54-1.08-.54-.83-1.48-.59-2.13.19-.53 1.05-.92.96-1.66 0-.03.43-.1.65-.16l5.09-.2h.96c-.11.23-.21.46-.34.68-.16.27-.98.69-.22.79 1.64.2 2.28 1.3 3.31 2.05.2.15.09.73-.07 1.04-.96 1.79-1.04 2.21-.11 3.5.21.3.44.42.02.57-.27.1-.61.18-.88.13-.27-.05-.69-.25-.7-.41-.08-.65-.05-1.32-.03-1.98.03-.78-.62-.73-1.27-.8-.22-.02-.41-.28-.61-.43.26-.11.52-.26.79-.34 1.26-.38 1.43-.84.62-1.57-1.28-1.17-2.69-1.15-3.99.03-.71.64-.5 1.17.22 1.63.39.25.41.35.03.58-.55.35-.97.72.16.93.4.08.98.26 1.07.5.11.29-.19.97-.37.98-1.27.1-2.55.08-3.83.09-1.1 0-2.23-.17-3.03.76-.1.11-.88-.06-1.25-.23-1.42-.67-1.42-.7-2.34.06-.34.28-.65.59-1.04.82-.11.06-.48-.09-.65-.21-.36-.26-1-.65-.93-.84.56-1.53-1.72-2.54-1.02-4.03h-.01ZM361.63 21.03c-.94.27-1.55.35-2 .61-.51.3-.94.55-1.6.69-1.21.25-.1.62.04.98.19.47.23 1 .22 1.51 0 .21-.27.6-.44.61-.96.07-2.14-.24-2.83.12-.84.43-1.54.84-2.55.73-.16-.02-.32-.02-.48 0-.98.11-1.42-.17-1.47-1.05-.03-.43-.65-.82-.89-1.27-.09-.17.1-.63.25-.66.59-.13 1.22-.21 1.83-.19.92.04.77.64.82 1.15 0 .11.4.21.64.26.07.01.26-.17.29-.28.27-1.12.92-2.09 1.75-2.98.28-.3.3-.34 1.35.03.32.11.37.13.71-.1 1.23-.85 2.58-.54 4.35-.15l.01-.01ZM370.61 25.31c-.29.05-.65.21-.87.13-.41-.14-.88-.37-1.09-.67-.6-.9-2-.67-2.69-1.39-.56-.58-.79.04-1 .23-.31.29-.57.35-.68-.04-.14-.49-.05-1.03-.17-1.53-.1-.41-.52-.49-1.02-.6-1.02-.23-1.27-.81-.64-1.35.52-.45 1.05-1.51 2.02-.32.94.04 1.89.06 2.83.12.58.03.98.75.64 1.22-.31.42-1.07.64-.9 1.27.06.23.27.43.42.65.11-.06.22-.16.34-.19.35-.07.74-.96.94-.27.28.99 1.03 1.55 1.8 2.16.33.26.44.39.07.57v.01ZM386.86 77.25c-.48 0-.97-.06-1.44.01-1.34.19-1.81-.31-2.2-1.34-.24-.62-1.08-.94.39-1.09.51-.05.96-.57 1.47-.61.33-.03.7.58 1.09.61 1.57.11 3.15.1 4.73.18.13 0 .23.42.34.65-1.3-.08-.65 1.03-1.18 1.31-.47.25-1.17.2-1.77.28-.16.02-.32 0-.48 0h-.96.01ZM247.9 20.69c.25-.99 1.4-1.36 2.04-2.07.51-.56.71.02 1.01.19.86.47 1.82.52 2.58.01 1.29-.87 2.68-.72 3.88-.19.71.31.97.37 1.39-.12.21-.24.56-.21.64.14.08.33-.08.71-.18 1.06-.02.08-.26.19-.37.17-1.11-.17-2.01.22-2.89.69-.11-.22-.25-.44-.33-.67-.31-.85-.32-.84-1.02-.38-.69.46-1.22 1.75-2.36.39-1.17 1.33-2.9.59-4.4.79l.01-.01ZM205.93 24.67c.8 0 1.61-.01 2.41 0 .55.01.81.26.86.72.04.46-.24.88-.68.83-.97-.1-1.26.72-2.01.82-.75.1-1.57-.19-2.2.43-.75.73-.93-.2-1.34-.39-.43-.2-.61-.52-.06-.83.54-.3.35-.59-.06-.84-.61-.38-.2-.69.21-.73.95-.08 1.92-.03 2.89-.03l-.02.02ZM282.84 15.56c.7-.68 1.27-1.46 2.65-1.26.94.14 1.89.09 2.58-.68.13-.14 1.11-.04 1.21.13.24.44.27.99.27 1.49 0 .43-.31.71-.91.67-.16-.01-.32 0-.48 0-1.12-.05-2.22-.11-3.03.77-.1.11-.87-.11-1.24-.29-.4-.2-.7-.54-1.04-.83h-.01ZM23.46 33.63l2.89 2.39c1.31-1 1.29-.98 1.97-.43.46.38.91.74.72 1.31-.06.17-.37.28-.57.42-.54-.63-.95-.66-1.74-.1-.43.3-1.66.29-2.14 0-.65-.4-.66-1.29-1.27-1.9-.31-.31-.4-1.24.14-1.69ZM306.02 20.69c.63 0 1.26.01 1.89 0 .95-.03 1.01-.11.54-.78-.08-.11-.26-.17-.32-.28-.31-.54-.16-1.1.33-1.32.35-.15 1.25.22 1.44.6.17.33.31.67.51.98.03.05.3 0 .45 0-.13 1.51-.88 2.35-2.22 2.38-.77.02-1.54-.05-2.3-.16-.15-.02-.26-.41-.31-.65-.05-.25-.01-.52-.01-.78v.01ZM165.58 29.83c-.73.65-1.32 1.44-2.67 1.23-.61-.1-1.26 0-1.89-.02-1.23-.02-1.23-.02-1.23-1.17 0-.26-.08-.54.03-.77.07-.15.58-.32.58-.31.77.96 1.96.58 3 .66.74.06 1.58-.25 2.18.37v.01ZM352.03 9.54c.33.27.65.57 1.01.82.45.32.74.92 1.49.75.41-.09.74-.4 1.13-.56.25-.11.55-.19.84-.2.55-.03.91.25.83.68-.06.32-.36.86-.58.87-1.57.08-3.15.06-4.72.01-.17 0-.47-.38-.46-.58.02-.61-.32-1.3.46-1.78v-.01ZM116.2 31.84c.44-1.12 1.25-1.74 2.79-1.61.95.08 1.93-.03 2.89.04.35.02.67.3 1.01.46-.27.11-.55.31-.8.3-.8-.05-1.01.74-1.54.78-1.44.11-2.89.04-4.35.04v-.01ZM352.57 4.76c1.11 0 2.22 0 3.33.01.11 0 .34.2.32.26-.08.19-.22.49-.38.5-.63.06-1.27.05-1.9.02-1.11-.05-2.17-.07-2.97.77-.1.11-.94-.06-1.21-.29-.49-.42-1.03-.5-1.66-.53-.12 0-.34-.23-.32-.25.14-.18.33-.46.51-.46 1.43-.04 2.85-.02 4.28-.02v-.01ZM150.11 30.37c.04-.72.28-.81 1.1-.93 1.37-.2 2.05.56 2.75 1.23.31.29-.3.3-.41.41-.69.72-1.54.83-2.55.77-.57-.03-.85-.25-.89-.69-.02-.26 0-.53 0-.79ZM265.89 19.14c-.59-.09-.95-.06-1.16-.19-.2-.13-.32-.42-.32-.64 0-.22.12-.58.31-.64.4-.13.94-.25 1.32-.14 1.41.42 2.21-.68 3.38-.81.13-.01.29.04.42.1.43.17.37.3.08.56-1.19 1.02-2.7 1.45-4.02 1.78l-.01-.02ZM141.88 31.84c-.63 0-1.27.01-1.9-.01-.12 0-.34-.18-.33-.24.06-.19.15-.46.32-.53 1.67-.64 3.68-.98 4.81-.78.2.04.48.41.45.59-.06.34-.28.9-.51.93-.93.11-1.9.04-2.85.04h.01ZM436.69 51.73c.68.04 1.24-.06 1.56.12.29.16.38.63.43.97.07.49.17 1.09-.54 1.29-.34.1-.95-.05-1.22-.27-.49-.4-.99-.6-1.63-.48-.48.09-.61 0-.47-.39.12-.35.07-.9.32-1.01.5-.21 1.16-.18 1.54-.23h.01ZM391.7 75.66c.84-.68 1.22-.93 1.51-1.23.45-.48.76-.17 1.01.11.27.3.44.35.69.1.2-.2.44-.37.67-.56.49.77 1.59.64 2.29 1.09.01 0-.26.46-.41.47-1.75.03-3.5.02-5.76.02ZM109.43 31.45c.39-.32.73-.7 1.17-.95 1.07-.61 3.06-.13 3.52.85.05.1-.26.46-.42.47-1.25.04-2.51.03-3.76.01-.12 0-.23-.16-.52-.38h.01ZM393.18 86.05c0-.39-.02-.78.01-1.17 0-.1.16-.21.28-.29.08-.05.29-.08.32-.05.51.6.5 1.39 1.27 1.94.31.22.17 1.02 0 1.5-.08.22-.74.36-1.15.4-.22.02-.68-.23-.7-.38-.08-.64-.03-1.3-.03-1.95ZM200.47 25.11c-.05.93-.91 1.72-1.96 1.95-.41.09-.97-.26-.95-.6.04-.77.89-1.6 1.96-1.75.3-.04.69.29.95.41v-.01ZM278.91 16.49c0-.26-.02-.51 0-.77.06-.52.9-.89 1.41-.6.37.22.65.55 1.02.78.47.31.38.55-.03.83-.35.24-.65.55-1.02.77-.42.25-1.32-.18-1.38-.62-.02-.13 0-.26 0-.38v-.01ZM456.99 15.51c1.24-.6 2.45-.45 3.64-.25.16.03.31.41.32.64 0 .22-.13.6-.3.64-.87.23-1.78.39-2.56-.22-.34-.26-.69-.51-1.09-.81h-.01ZM177.21 29.04c-.24.14-.49.4-.7.38-.42-.04-.9-.16-1.2-.38-.7-.52-1.29-.56-1.97 0-.16.13-.43.18-.65.27-.1-.22-.29-.44-.29-.67 0-.22.18-.62.31-.63 1.05-.06 2.14-.17 3.16-.01.51.08.9.68 1.34 1.04ZM366.34 16.71c1.68-.01 1.71 0 1.68 1.58 0 .48-.27.77-.74.78-.4 0-1.15-.22-1.16-.37-.04-.55-.12-1.02-.71-1.33-.39-.21-.41-.4.04-.54.27-.09.59-.08.88-.12h.01ZM323.96 9.54c-.32 0-.77.11-.92-.02-.28-.25-.46-.62-.52-.96-.03-.18.25-.54.46-.58.45-.09.94-.04 1.42-.02.76.03 1.13.38.99.97-.1.4-.35.7-.95.62-.15-.02-.32 0-.47 0l-.01-.01ZM460.98 19.1c-.68 0-1.03.06-1.31-.02-.22-.06-.37-.29-.52-.47-.02-.02.25-.28.32-.26 1.56.47 2.5-.95 3.93-.85.16.01.38-.05.46.02.08.07.09.31 0 .37-.88.75-1.66 1.73-2.89 1.21h.01ZM156.87 30.6c.05 1.21-.3 1.41-2.13 1.23-.27-.03-.61-.21-.74-.4-.24-.36.09-.31.43-.43.55-.19.92-.71 1.39-1.07.2-.15.45-.26.68-.39.13.35.35.7.36 1.06h.01ZM2.8 46.13s-.49 0-.6-.16c-.37-.56.24-.48.63-.6.42-.12.78-.37 1.19-.5.42-.13.86-.2 1.3-.28.15-.03.38-.06.46.01.08.07.09.31 0 .37-.77.63-1.4 1.49-3 1.15l.02.01ZM351.09 19.1c-.31 0-.65.06-.93-.02-.19-.06-.32-.31-.41-.49-.02-.05.19-.23.31-.25.3-.04.75.08.9-.05.72-.63 1.36-.95 2.02.02.12.17.24.36.29.55.02.06-.2.23-.32.24-.62.02-1.25.01-1.87.01l.01-.01ZM149.16 31.42c-.65.67-1.48.41-2.21.4-.47 0-.85-.3-.71-.78.06-.23.14-.51.34-.64s.66-.23.84-.13c.62.33 1.17.76 1.75 1.15h-.01ZM15.09 42.2c.86-.22 1.33.34 1.85.8.16.14.21.36.32.54-.43.08-1.01.35-1.24.22-.62-.36-1.04-.94-1.97-.79-.06 0-.23-.33-.28-.52-.02-.06.2-.22.32-.24.31-.04.62-.01 1.02-.01h-.02ZM352.01 22.3c-.58-.04-1.33-.05-2.05-.16-.16-.02-.28-.4-.34-.63-.13-.46.21-.72.68-.81.47-.08 2.19.87 2.19 1.18 0 .09-.2.18-.49.41l.01.01Z" fill="#81C8C2"></path><path d="M434.83 53.75c-.73.44-1.1 1.37-2.28 1.18-.2-.03-.35-.3-.53-.46.72-.46 1.11-1.37 2.33-1.12.15.03.38-.05.46.02.08.07.02.25.02.38ZM360.72 7.15c.31 0 .63-.02.94.01.13.01.34.17.33.23-.04.19-.19.53-.27.52-.66-.03-1.24.07-1.61.56-.26.35-.48.37-.66 0-.11-.22-.2-.49-.14-.71.06-.22.26-.49.48-.58.25-.1.61-.02.93-.02v-.01ZM369.41 11.17c-.31-.28-.63-.54-.92-.84-.15-.15-.22-.35-.32-.53.27-.09.52-.22.8-.25.46-.04.93-.03 1.39 0 .12 0 .34.16.33.22-.03.19-.1.39-.24.53-.3.29-.65.55-1.03.86l-.01.01ZM40.95 42.99c.15.13.57.34.67.62.2.6-.22.94-.95.98-.6.04-.86-.23-.95-.62-.14-.62.24-.98 1.23-.98ZM327.1 8.74c-.24-.13-.49-.26-.73-.39.1-.09.2-.18.31-.27.33-.27.63-.57 1.01-.79.08-.05.53.15.59.29.31.75-.17 1.2-1.17 1.16h-.01ZM332.17 11.31l-.48.6c-.11-.09-.22-.17-.33-.26-.33-.27-.69-.52-.96-.83-.06-.06.18-.43.36-.49.91-.26 1.46.14 1.41.97v.01ZM363.7 14.36c-.18-.15-.32-.23-.4-.33-.32-.45-.17-1.18.36-1.28.38-.07.84.14 1.26.23-.1.18-.17.38-.32.54-.28.3-.6.57-.91.85l.01-.01ZM460.25 13.52c-.16 0-.34.04-.47 0-.26-.1-.5-.26-.75-.39.25-.13.48-.34.75-.38.46-.06.95-.06 1.41 0 .27.04.5.25.75.38-.25.13-.48.32-.75.38-.29.07-.62.02-.94.02v-.01ZM355.33 15.91c-.23-.19-1.01.39-.86-.37.03-.17.42-.39.67-.4.6-.04 1.2 0 1.8.06.12 0 .32.23.31.25-.15.17-.31.42-.52.45-.44.07-.91.02-1.41.02l.01-.01ZM276.3 17.34c-.1-.09-.25-.18-.28-.28-.27-.77.19-1.23 1.2-1.13.26.02.49.25.73.38l-.33.27c-.92.79-.98.83-1.32.77v-.01ZM219.83 23.9c-.05.61-.37.84-1.21.75-.26-.03-.49-.25-.73-.38l.33-.27c.22-.18.42-.38.66-.53.19-.11.43-.16.65-.23.1.22.2.44.29.67l.01-.01ZM380.13 23.89c.12.1.27.18.34.29.31.46.12 1.11-.4 1.28-.27.08-.67.1-.91 0-.52-.22-.4-.52 0-.8.34-.24.65-.51.98-.76l-.01-.01ZM360.03 27.06c-.24-.13-.49-.26-.73-.39.1-.09.2-.18.31-.27.33-.27.63-.57 1.01-.79.08-.05.53.15.59.29.31.75-.17 1.2-1.17 1.16h-.01ZM187.29 27.86c-.11-.01-.57-.05-1.01-.13-.13-.02-.23-.17-.34-.26.11-.09.21-.25.34-.26.61-.07 1.22-.14 1.82-.11.25 0 .5.25.75.38-.25.13-.48.29-.75.39-.13.05-.31 0-.81 0v-.01ZM21.38 30.94c-.16.27-.27.74-.58.85-.32.12-.82-.11-1.25-.19.09-.18.15-.38.28-.54.18-.2.43-.37.65-.55l.33-.27.56.69.01.01ZM370.77 21.54c-.2-.17-.68-.44-.63-.57.17-.43 1.19-.43 1.55-.03.06.06.06.24.02.26-.25.11-.53.19-.95.34h.01ZM328.3 21.06c0 .25.07.52-.02.74-.07.17-.35.28-.54.42-.13-.2-.35-.39-.38-.61-.04-.21.08-.46.18-.67.05-.1.19-.2.32-.24.44-.14.6 0 .45.36h-.01ZM402.43 19.88c-.62-.3-.63-.77-.44-1.25.04-.1.27-.26.3-.25.21.11.52.24.55.4.08.36.03.74 0 1.11 0 0-.31.04-.42 0l.01-.01ZM370.46 18.3c-.3 0-.63.06-.89-.02-.21-.06-.34-.29-.51-.45.25-.11.48-.28.74-.31.26-.03.56.07.82.15.12.04.24.16.29.26.17.36 0 .49-.44.37h-.01Z" fill="#81C8C2"></path><path d="M354.44 16.27c-.37.51-.93.52-1.52.36-.13-.03-.32-.22-.31-.25.14-.17.29-.42.49-.45.44-.07.9-.02 1.35 0 0 0 .05.26 0 .34h-.01ZM308.92 11.49c-.37.51-.93.52-1.52.36-.13-.03-.32-.22-.31-.25.14-.17.29-.42.49-.45.44-.07.9-.02 1.35-.02 0 .12.05.27 0 .36h-.01ZM423.28 11.23l-.56.7c-.16-.2-.48-.42-.45-.6.05-.34.29-.66.45-.99l.56.89ZM333.97 7.2c-.2-.17-.68-.44-.63-.57.17-.43 1.19-.43 1.55-.03.06.06.06.24.02.26-.25.11-.53.19-.95.34h.01ZM443 .37c-.81.2-1.22.36-1.63.37-.24 0-.49-.24-.73-.37.24-.13.49-.38.73-.37.41 0 .82.18 1.63.37ZM365.98 92.86c-.11.35-.89.44-1.56.17a.588.588 0 0 1-.29-.27c-.17-.36-.01-.48.44-.37.41.09.84.13 1.24.22.07.02.11.16.16.25h.01ZM328.16 23.02c.42.14.69.23.95.34.04.02.03.2-.02.26-.36.4-1.39.4-1.55-.03-.05-.13.43-.4.63-.57h-.01ZM374.85 22.17c-.18.35-.27.57-.41.78-.02.03-.24.03-.31-.02-.49-.3-.49-1.14.03-1.28.16-.04.48.36.69.52ZM363.02 10.05l-.34.28c-.11-.18-.25-.35-.3-.53-.02-.07.2-.17.3-.26l.34.51ZM375.61 10.05c-.13.11-.24.19-.34.28-.11-.18-.25-.35-.3-.53-.02-.07.2-.17.3-.26.12.17.23.35.34.51ZM309.49 10.4c.11.09.32.22.3.25-.11.17-.26.34-.44.47-.08.06-.33.06-.41 0-.07-.06-.07-.26 0-.33.15-.15.36-.26.55-.38v-.01ZM320.41 14.6l-.34.51c-.11-.09-.32-.2-.3-.26.05-.19.2-.36.3-.53l.34.28ZM418.9 15.11c-.15-.16-.47-.4-.42-.46.34-.48.62-.15.84.11.07.08.01.23.01.35h-.43ZM364.75 15.79l-.62-.28c.11-.09.24-.26.32-.25.23.04.43.16.65.25l-.34.28h-.01ZM356.87 16.71c.11.18.25.35.3.53.02.07-.2.17-.3.26-.11-.18-.25-.35-.3-.53-.02-.07.2-.17.3-.26ZM464.44 16.77c.11.09.32.22.3.25-.11.17-.26.34-.44.47-.08.06-.33.06-.41 0-.07-.06-.07-.26 0-.33.15-.15.36-.26.55-.38v-.01ZM360.26 17.9c-.22.09-.42.21-.65.25-.08.01-.21-.16-.32-.25.22-.09.42-.21.65-.25.08-.01.21.16.32.25ZM371.8 18.76c-.11.09-.27.26-.31.25-.21-.09-.42-.21-.57-.36-.07-.07-.07-.27 0-.33s.32-.06.41 0c.18.12.32.3.47.45v-.01ZM457.93 19.38c-.11.17-.23.34-.34.51-.11-.09-.32-.2-.3-.26.05-.19.2-.36.3-.53l.34.28ZM278.08 20.18l.34-.28c.11.18.25.35.3.53.02.07-.2.17-.3.26l-.34-.51ZM393.67 19.89c.11.18.25.35.3.53.02.07-.2.17-.3.26-.11-.18-.25-.35-.3-.53-.02-.07.2-.17.3-.26ZM402.87 20.69v-.8c.47-.03.9.05.77.53-.04.13-.5.18-.77.27ZM247.92 21.04c-.19.12-.48.38-.56.35-.58-.28-.18-.51.13-.69.1-.06.28 0 .42 0v.36l.01-.02ZM397.68 20.8l.34.28c-.22.09-.42.21-.65.25-.08.01-.21-.16-.32-.25l.62-.28h.01ZM400.5 21.49c-.15-.16-.47-.4-.42-.46.34-.48.62-.15.84.11.07.08.07.28 0 .34s-.27.01-.42.01ZM237.89 22.96l-.62-.28c.11-.09.24-.26.32-.25.23.04.43.16.65.25l-.34.28h-.01ZM371.39 22.28c.11.18.25.35.3.53.02.07-.2.17-.3.26-.11-.18-.25-.35-.3-.53-.02-.07.2-.17.3-.26ZM362.73 25.47c-.15-.16-.47-.4-.42-.46.34-.48.62-.15.84.11.07.08.01.23.01.35h-.43ZM364.05 25.93c-.11.09-.27.26-.31.25-.21-.09-.42-.21-.57-.36-.07-.07-.07-.27 0-.33s.32-.06.41 0c.18.12.32.3.47.45v-.01ZM193.25 27.06c-.15-.16-.47-.4-.42-.46.34-.48.62-.15.84.11.07.08.07.28 0 .34s-.27.01-.42.01ZM194.58 27.53c-.11.09-.27.26-.31.25-.21-.09-.42-.21-.57-.36-.07-.07-.07-.27 0-.33s.32-.06.41 0c.18.12.32.3.47.45v-.01ZM333.97 28.14l-.34.51c-.11-.09-.32-.2-.3-.26.05-.19.2-.36.3-.53l.34.28ZM125.41 30.25c.11.18.25.35.3.53.02.07-.2.17-.3.26-.11-.18-.25-.35-.3-.53-.02-.07.2-.17.3-.26ZM116.21 32.2c-.19.12-.48.38-.56.35-.58-.28-.18-.51.13-.69.1-.06.34-.05.41 0 .07.06.02.22.02.34ZM333.62 31.84c.11.18.25.35.3.53.02.07-.2.17-.3.26-.11-.18-.25-.35-.3-.53-.02-.07.2-.17.3-.26ZM21.93 33.32l-.62-.28c.11-.09.24-.26.32-.25.23.04.43.16.65.25l-.34.28h-.01ZM15.36 35.54l-.34.28c-.11-.18-.25-.35-.3-.53-.02-.07.2-.17.3-.26l.34.51ZM133.24 36.69c.11.09.32.22.3.25-.11.17-.26.34-.44.47-.08.06-.28 0-.42 0 0-.12-.06-.28.01-.35.15-.15.36-.26.55-.38v.01ZM129.43 38.1l-.62-.28c.11-.09.24-.26.32-.25.23.04.43.16.65.25l-.34.28h-.01ZM27.68 38.28c.11.09.32.22.3.25-.11.17-.26.34-.44.47-.08.06-.33.06-.41 0-.07-.06-.07-.26 0-.33.15-.15.36-.26.55-.38v-.01ZM17.92 39.81c.11.18.25.35.3.53.02.07-.2.17-.3.26-.11-.18-.25-.35-.3-.53-.02-.07.2-.17.3-.26ZM444.51 41.4c.47-.03.9.05.77.53-.04.13-.5.18-.77.27v-.8ZM444.51 42.55c-.19.12-.48.38-.56.35-.58-.28-.18-.51.13-.69.1-.06.34-.05.41 0 .07.06.02.22.02.34ZM440.56 44.26c-.11.09-.27.26-.31.25-.21-.09-.42-.21-.57-.36-.07-.07-.07-.27 0-.33s.32-.06.41 0c.18.12.32.3.47.45v-.01ZM66.39 45.39c-.15-.16-.47-.4-.42-.46.34-.48.62-.15.84.11.07.08.07.28 0 .34s-.27.01-.42.01ZM67.71 45.85c-.11.09-.27.26-.31.25-.21-.09-.42-.21-.57-.36-.07-.07-.07-.27 0-.33s.32-.06.41 0c.18.12.32.3.47.45v-.01ZM.62 46.86 0 46.58c.11-.09.24-.26.32-.25.23.04.43.16.65.25l-.34.28H.62ZM431.52 52.62c.11.09.32.22.3.25-.11.17-.26.34-.44.47-.08.06-.33.06-.41 0-.07-.06-.07-.26 0-.33.15-.15.36-.26.55-.38v-.01ZM4.5 54.26l.34.28c-.22.09-.42.21-.65.25-.08.01-.21-.16-.32-.25l.62-.28h.01ZM9.25 59.73c-.15-.16-.47-.4-.42-.46.34-.48.62-.15.84.11.07.08.07.28 0 .34s-.27.01-.42.01ZM21.93 70.99l.34.28c-.22.09-.42.21-.65.25-.08.01-.21-.16-.32-.25l.62-.28h.01ZM391.25 75.66h.97c.03.39-.06.74-.64.63-.16-.03-.22-.41-.33-.63ZM387.94 80.5c.11.09.32.22.3.25-.11.17-.26.34-.44.47-.08.06-.33.06-.41 0-.07-.06-.07-.26 0-.33.15-.15.36-.26.55-.38v-.01ZM366.07 88.41c.47-.03.9.05.77.53-.04.13-.5.18-.77.27v-.8ZM374.92 91.88l.34-.28c.11.18.25.35.3.53.02.07-.2.17-.3.26-.12-.17-.23-.35-.34-.51ZM335.91 96.09l-.34.28c-.11-.18-.25-.35-.3-.53-.02-.07.2-.17.3-.26l.34.51ZM236.83 101.95c-.15-.16-.47-.4-.42-.46.34-.48.62-.15.84.11.07.08.07.28 0 .34s-.27.01-.42.01ZM357.84 4.76c.11.18.25.35.3.53.02.07-.2.17-.3.26-.11-.18-.25-.35-.3-.53-.02-.07.2-.17.3-.26ZM365.1 5.15c-.22.09-.42.21-.65.25-.08.01-.21-.16-.32-.25.22-.09.42-.21.65-.25.08-.01.21.16.32.25ZM363.7 7.15c-.15-.16-.47-.4-.42-.46.34-.48.62-.15.84.11.07.08.01.23.01.35h-.43ZM448.52 6.63l.34-.28c.11.18.25.35.3.53.02.07-.2.17-.3.26-.12-.17-.23-.35-.34-.51ZM365.02 7.61c-.11.09-.27.26-.31.25-.21-.09-.42-.21-.57-.36-.07-.07-.07-.27 0-.33s.32-.06.41 0c.18.12.32.3.47.45v-.01ZM349.46 8.46l-.34.28c-.11-.18-.25-.35-.3-.53-.02-.07.2-.17.3-.26.12.17.23.35.34.51ZM444.51 8.74c-.03-.39.06-.74.64-.63.16.03.22.41.33.63h-.97ZM454.05 8.23l-.34.51c-.11-.09-.32-.2-.3-.26.05-.19.2-.36.3-.53l.34.28ZM459.18 8.23c.13-.11.24-.19.34-.28.11.18.25.35.3.53.02.07-.2.17-.3.26l-.34-.51ZM308.11 27.06c.25.11.49.22.74.33-.32.16-.63.42-.95.43-.27 0-1.01.4-.87-.33.03-.17.4-.31.65-.42.11-.05.29 0 .45 0l-.02-.01ZM307.62 24.56l-.62-.28c.11-.09.24-.26.32-.25.23.04.43.16.65.25l-.34.28h-.01ZM310.24 26.38l.62.28c-.11.09-.24.26-.32.25-.23-.04-.43-.16-.65-.25l.34-.28h.01ZM306.99 28.21c-.19.12-.48.38-.56.35-.58-.28-.18-.51.13-.69.1-.06.34-.05.41 0 .07.06.02.22.02.34ZM306.99 31.05v.8c-.47.03-.9-.05-.77-.53.04-.13.5-.18.77-.27ZM91.73 43.79c-.64 0-.8.01-.96 0-.61-.07-1.01-.8-.66-1.22.18-.21.47-.36.67-.57.43-.45.78-.7 1.39-.1.45.44 1.08 1.31.79 1.46-.5.25-1.09.38-1.23.42v.01Z" fill="#81C8C2"></path></svg>